<?xml version="1.0" standalone="no"?>
<!DOCTYPE svg PUBLIC "-//W3C//DTD SVG 1.1//EN" "http://www.w3.org/Graphics/SVG/1.1/DTD/svg11.dtd" >
<!--
2015-1-12: Created with FontForge (http://fontforge.org)
-->
<svg xmlns="http://www.w3.org/2000/svg" xmlns:xlink="http://www.w3.org/1999/xlink" version="1.1">
<metadata>
Created by FontForge 20141024 at Mon Jan 12 17:19:04 2015
 By Zhenkun Ou
Copyright (c) 2015, Zhenkun Ou
</metadata>
<defs>
<font id="bud-font" horiz-adv-x="512" >
  <font-face 
    font-family="bud-font"
    font-weight="400"
    font-stretch="normal"
    units-per-em="512"
    panose-1="2 0 5 3 0 0 0 0 0 0"
    ascent="448"
    descent="-64"
    bbox="-0.290545 -64 512.243 448.076"
    underline-thickness="25.6"
    underline-position="-51.2"
    unicode-range="U+F101-F11A"
  />
    <missing-glyph />
    <glyph glyph-name="uniF101" unicode="&#xf101;" horiz-adv-x="450" 
d="M39 376v-324h240v-39h-240c-22 0 -39 17 -39 39v324c0 22 17 39 39 39h328c22 0 39 -17 39 -39v-241h-40v241h-327zM86 283h233v-40h-233v40zM406 53h44v-40h-44v-44h-40v44h-44v40h44v43h40v-43z" />
    <glyph glyph-name="uniF102" unicode="&#xf102;" horiz-adv-x="424" 
d="M35 320v0zM0 355h424v-71h-424v71zM35 187v0zM0 223h424v-71h-424v71zM35 55v0zM0 90h424v-71h-424v71z" />
    <glyph glyph-name="uniF103" unicode="&#xf103;" horiz-adv-x="447" 
d="M224 416c123 0 223 -100 223 -223s-100 -222 -223 -222s-224 99 -224 222s101 223 224 223zM151 240c0 -2 -1 -2 -1 -4c0 -18 15 -34 34 -34h85c15 0 28 13 28 28c0 4 -1 7 -2 10c-2 5 -5 9 -9 12c-5 4 -10 6 -17 6h-4c-1 20 -17 35 -37 35c-16 0 -29 -12 -34 -26
c-3 1 -7 2 -10 2c-13 0 -23 -7 -29 -17c-2 -3 -3 -8 -4 -12zM272 137h1c13 0 23 10 23 23v2h-24v-25zM266 167v0h26c-1 12 -10 22 -23 22s-24 -10 -24 -23c0 -12 9 -22 21 -23v24zM228 185h-15v-48h15v48zM200 171h-17v-34h17v34zM174 182h-19v-45h19v45zM117 244v-125v-3
h213v3v125c0 4 -3 8 -7 8h-28c3 -3 5 -8 6 -12h18v-113h-191v113h17c0 4 1 8 3 12h-24c-4 0 -7 -4 -7 -8zM349 93c9 0 9 10 9 10h-28h-213h-28s1 -10 10 -10h250z" />
    <glyph glyph-name="uniF104" unicode="&#xf104;" 
d="M450 406v-52h-74v52h-246v-52h-73v52h-57v-387h512v387h-62zM103 64h-58v59h58v-59zM103 154h-58v58h58v-58zM103 244h-58v58h58v-58zM194 64h-58v59h58v-59zM194 154h-58v58h58v-58zM194 244h-58v58h58v-58zM285 64h-58v59h58v-59zM285 154h-58v58h58v-58zM285 244h-58
v58h58v-58zM376 64h-58v59h58v-59zM376 154h-58v58h58v-58zM376 244h-58v58h58v-58zM467 64h-58v59h58v-59zM467 154h-58v58h58v-58zM467 244h-58v58h58v-58zM83 371h33v77h-33v-77zM390 371h33v77h-33v-77z" />
    <glyph glyph-name="uniF105" unicode="&#xf105;" 
d="M131 441c12 0 22 -10 22 -22v-393c0 -12 -10 -22 -22 -22h-109c-12 0 -22 10 -22 22v393c0 12 10 22 22 22h109zM113 88v31h-73v-31h73zM113 356v31h-73v-31h73zM283 441c12 0 22 -10 22 -22v-393c0 -12 -10 -22 -22 -22h-109c-3 0 -7 2 -10 3c3 6 6 12 6 19v393
c0 7 -3 14 -6 20c3 1 7 2 10 2h109zM265 88v31h-73v-31h73zM265 356v31h-73v-31h73zM476 428l36 -391c1 -12 -8 -23 -20 -24l-109 -10c-12 -1 -22 8 -23 20l-36 391c-1 12 7 23 19 24l109 10c12 1 23 -8 24 -20zM371 352l72 7l-3 31l-72 -7zM398 85l72 7l-3 31l-72 -7z" />
    <glyph glyph-name="uniF106" unicode="&#xf106;" horiz-adv-x="447" 
d="M260 116l1 -1c2 -3 1 -7 -1 -9c-3 -3 -7 -3 -10 0c-2 2 -3 4 -2 7l1 1l1 2c2 2 5 3 7 2c1 0 2 -1 3 -2zM224 416c123 0 223 -101 223 -224s-100 -224 -223 -224s-224 101 -224 224s101 224 224 224zM269 96v26c0 3 -2 5 -5 5h-1h-5h-69h-4h-1c-3 0 -5 -2 -5 -5v-26
c0 -3 2 -5 5 -5h79c3 0 6 2 6 5zM243 240c0 -4 3 -7 6 -7s7 3 7 7s-4 8 -7 8s-6 -4 -6 -8zM304 131c28 0 50 22 50 50c0 27 -22 50 -50 50c-2 0 -5 -1 -7 -1c-2 35 -31 63 -66 63c-29 0 -51 -21 -60 -47c-5 1 -13 4 -18 4c-33 0 -59 -26 -59 -59s26 -60 59 -60h36v3v0
c0 3 -3 7 -7 11l-1 1l-2 1c-2 3 -3 7 -3 10v8v51c2 2 4 3 7 3c2 0 4 -1 6 -2l1 -1c1 -1 2 -1 3 -2h1h2c1 4 4 7 9 7c2 0 4 -1 6 -2l3 -3s1 -1 1 -2h3c1 4 5 7 10 7c2 0 4 -1 6 -2l2 -2s2 -2 2 -3h1v11v0v6v0v8v1v1c0 6 5 10 11 10c2 0 3 0 5 -1c3 -2 5 -5 5 -8v-1v0v-9v0v-5
v-34v0v-7v-6l9 9c4 3 9 4 13 1c1 0 1 0 2 -1c4 -4 4 -11 0 -15l-24 -23c0 -2 -1 -3 -1 -5v-2c-1 -5 -1 -8 -1 -10v-3h46z" />
    <glyph glyph-name="uniF107" unicode="&#xf107;" 
d="M480 312c17 0 32 -13 32 -29v-179c0 -16 -15 -29 -32 -29h-48v-82l-83 82h-134c-11 0 -21 6 -27 14l29 29h155c41 0 74 32 74 71v123h34zM203 153l-103 -103v103h-60c-22 0 -40 16 -40 36v223c0 20 18 36 40 36h332c22 0 39 -16 39 -36v-223c0 -20 -17 -36 -39 -36h-169z
M297 331c-14 0 -25 -12 -25 -26s11 -26 25 -26s26 12 26 26s-12 26 -26 26zM205 331c-14 0 -25 -12 -25 -26s11 -26 25 -26s26 12 26 26s-12 26 -26 26zM88 305c0 -14 11 -26 25 -26s26 12 26 26s-12 26 -26 26s-25 -12 -25 -26z" />
    <glyph glyph-name="uniF108" unicode="&#xf108;" horiz-adv-x="447" 
d="M404 416c24 0 43 -19 43 -43v-361c0 -24 -19 -43 -43 -43h-361c-24 0 -43 19 -43 43v361c0 24 19 43 43 43h361zM99 12v361h-56v-361h56zM404 12v361h-87v-139l-52 41l-42 -41v139h-81v-361h262z" />
    <glyph glyph-name="uniF109" unicode="&#xf109;" 
d="M40 136c0 -19 5 -34 18 -45c4 -3 9 -7 14 -8c71 -21 142 -43 213 -64c3 -1 6 -1 8 2c57 69 114 137 171 206c3 4 4 7 3 12c-3 16 -2 32 4 47c3 9 12 16 21 15s16 -7 17 -17c0 -3 0 -8 -1 -11c-4 -13 -5 -25 0 -37c3 -8 2 -15 -4 -22c-31 -37 -61 -74 -92 -111
c-32 -39 -65 -77 -97 -116c-8 -10 -17 -13 -29 -9c-76 23 -152 45 -228 68c-22 7 -37 22 -47 42c-12 24 -14 48 -8 74c4 18 10 36 22 51c10 12 21 24 31 35c56 63 113 125 169 188c5 5 9 11 17 12c3 0 7 0 10 -1c80 -18 162 -35 242 -53c18 -4 24 -22 12 -36
c-68 -79 -137 -157 -205 -236c-9 -10 -18 -13 -31 -9c-65 19 -129 37 -194 55c-3 1 -7 2 -10 2c-14 0 -22 -6 -25 -20c-1 -5 -1 -11 -1 -14zM364 296c9 0 15 1 19 6c5 6 10 13 15 19c3 4 3 9 -2 11c-2 1 -5 1 -7 2c-48 12 -95 24 -143 35c-11 3 -20 1 -27 -9
c-3 -4 -7 -8 -10 -12c-7 -8 -5 -13 5 -16c1 0 1 -1 2 -1c41 -10 81 -20 122 -30c9 -2 19 -3 26 -5z" />
    <glyph glyph-name="uniF10A" unicode="&#xf10a;" 
d="M0 192l256 256l256 -256l-256 -256z" />
    <glyph glyph-name="uniF10B" unicode="&#xf10b;" horiz-adv-x="478" 
d="M412 294h66v-358h-478v358h74s0 -7 0 -6c0 93 76 160 169 160s169 -74 169 -154v0zM167 16h160l-47 76c16 11 27 13 27 34c0 33 -27 62 -60 62s-60 -23 -60 -56c0 -21 11 -30 27 -41zM332 294c0 0 1 -7 1 -6c0 49 -41 80 -90 80s-90 -34 -90 -74h1h178z" />
    <glyph glyph-name="uniF10C" unicode="&#xf10c;" horiz-adv-x="509" 
d="M20 417h32v31h-32v-31zM52 413h-32v-31h32v31v0zM37 386c-7 0 -12 3 -12 7c0 5 8 5 8 6s-7 4 -7 8c0 1 2 1 3 1h14c1 0 2 0 2 -1s0 -4 -1 -4s-5 1 -8 1h-2c0 -1 8 -5 8 -6c0 0 0 -1 -1 -1c-5 0 -9 -2 -9 -4c0 -1 1 -3 4 -3c4 0 5 2 6 2l5 -3s-4 -3 -10 -3zM20 346h32v31
h-32v-31zM20 342l-18 -10h32l18 10h-32zM57 419h32v29h-32v-29zM57 346h32v31h-32v-31zM57 342l-18 -10h32l18 10h-32zM94 346h32v31h-32v-31zM76 332h32l18 10h-32zM16 448l-16 -10v-31l16 10v31zM16 413l-16 -10v-31l16 10v31zM16 377l-16 -10v-31l16 10v31zM75 408h-12
v-21h13h6c2 0 2 1 4 2c2 2 3 4 3 8c0 7 -4 11 -14 11zM81 392c-1 -2 -3 -2 -6 -2h-4v15h3c5 0 8 -3 8 -8c0 -2 0 -4 -1 -5zM111 386c8 0 13 3 13 7v15h-6v-15c0 -1 0 -2 -1 -3s-3 -1 -5 -1s-3 0 -4 1s-2 2 -2 3v15h-7v-15c0 -5 3 -7 12 -7zM192 396v0h7l-5 -20
c0 -1 -1 -2 -1 -3c0 -3 1 -5 3 -6s4 -2 6 -2h38c3 0 5 1 6 2c2 1 4 3 4 5c0 1 -1 2 -1 4l-3 13h-6l3 -14v-1s0 -3 -1 -3h-3h-34h-2c-1 0 -1 1 -2 1c-1 1 -1 1 -1 2v2l5 20h45v5h-58v-5zM193 413h56v5h-56v-5zM257 409v0h58v6h-26v4h-6v-4h-26v-6zM257 365h58v6h-58v-6z
M260 404l2 -19c0 -4 1 -6 3 -8s4 -3 7 -3v6c-2 0 -2 1 -3 2s-1 2 -1 4l-3 18h-5zM300 374c2 0 3 1 4 1c2 1 4 3 5 5c1 1 1 2 1 5l3 19h-6l-3 -19c0 -2 0 -3 -1 -4s-2 -1 -3 -1v-6zM321 365c3 0 6 1 8 3c1 2 2 4 2 6l3 20h35c3 0 4 -2 4 -4v-15c0 -1 -1 -2 -1 -3
c-1 -1 -2 -1 -3 -1h-13v-6h14c3 0 4 0 6 2s3 4 3 6v18c0 3 -1 4 -3 6c-2 1 -3 2 -6 2h-35l1 9h44v6h-27v4h-6v-4h-26v-6h9l-4 -34c0 -1 -2 -2 -3 -3h-2v-6zM386 380v0h33v-5c0 -1 0 -2 -1 -3s-3 -1 -4 -1h-10v-6h12c3 0 5 1 7 3s2 4 2 7v5h19v6h-16l5 3c2 2 4 4 4 6
s-2 3 -3 4s-3 2 -6 2h-38v-6h36h2v-1c0 -1 0 -1 -1 -2l-9 -6h-32v-6zM386 402h6v3c0 2 1 3 4 3h38c3 0 5 -1 5 -3v-3h5l1 3c0 2 0 4 -1 5c-1 2 -3 3 -6 4v5h-5v-5h-15v5h-6v-5h-14v5h-6v-5c-4 -1 -6 -4 -6 -8v-4zM451 365h5v46c0 1 1 2 1 2h1h4h1s1 -1 1 -2v-12
c0 -1 -1 -1 -2 -1h-2v-6h2c1 0 2 -1 2 -2v-13c0 -1 -1 -2 -2 -2h-2v-6h4c1 0 3 1 4 2s2 2 2 4v16c0 1 -1 2 -1 2c0 1 0 2 -1 2c1 1 2 1 2 3v16c0 1 -1 2 -2 3s-2 2 -4 2h-8c-1 0 -3 -1 -4 -2s-1 -2 -1 -4v-48zM471 365c2 0 4 1 6 2c3 2 5 4 6 9c0 2 2 6 2 10h11v-15
c0 -2 1 -3 2 -4s2 -2 3 -2h8v6h-5c-1 0 -2 1 -2 1v2v12h7v6h-38v-6h8v-5c0 -4 -2 -6 -3 -7c-1 -2 -3 -3 -5 -3v-6zM471 406h6v2c0 1 0 1 1 2c0 1 1 1 2 1h20c1 0 1 0 2 -1s1 -1 1 -2v-2h6v3c0 2 -1 5 -3 6c-1 1 -4 2 -6 2h-7v2h-6v-2h-8c-3 0 -5 -2 -6 -3s-2 -3 -2 -4v-4z
M472 396h37v6h-37v-6z" />
    <glyph glyph-name="uniF10D" unicode="&#xf10d;" 
d="M82 322h129v126h-129v-126zM211 305h-129v-127h129v127v0zM151 193c-29 0 -48 15 -48 32c0 21 30 22 30 25c0 2 -27 13 -27 31c0 4 6 3 11 3h59c3 0 9 0 9 -3c0 -2 -3 -15 -6 -15s-19 4 -33 4c-3 0 -8 0 -8 -2c0 -3 34 -22 34 -26c0 -2 -5 -2 -7 -2c-20 0 -35 -5 -35 -15
c0 -6 8 -12 18 -12c15 0 21 8 25 8c2 0 18 -14 18 -15s-14 -13 -40 -13zM82 33h129v126h-129v-126zM82 16l-73 -42h130l72 42h-129zM233 328h129v120h-129v-120zM233 33h129v126h-129v-126zM233 16l-73 -42h130l72 42h-129zM382 33h130v126h-130v-126zM310 -26h129l73 42
h-130zM65 448l-65 -41v-126l65 41v126zM65 305l-65 -41v-127l65 41v127zM65 159l-65 -41v-126l65 41v126zM305 284h-46v-87h52c10 0 17 1 21 2c6 1 13 4 19 9c9 7 14 17 14 32c0 29 -20 44 -60 44zM329 221c-4 -7 -12 -11 -24 -11h-14v61h12c20 0 30 -11 30 -31
c0 -9 -2 -15 -4 -19zM454 196c34 0 51 9 51 26v62h-24v-60c0 -5 -2 -9 -6 -11s-9 -4 -18 -4c-8 0 -13 2 -17 4s-6 5 -6 10v61h-32v-58c0 -20 17 -30 52 -30z" />
    <glyph glyph-name="uniF10E" unicode="&#xf10e;" horiz-adv-x="321" 
d="M0 288c0 89 71 160 160 160s161 -71 161 -160s-72 -161 -161 -161s-160 72 -160 161zM160 89c36 0 70 9 99 26v-179l-90 38l-100 -38v176c27 -14 58 -23 91 -23z" />
    <glyph glyph-name="uniF10F" unicode="&#xf10f;" horiz-adv-x="473" 
d="M51 448h371l1 -1c32 -7 50 -28 50 -61v-445v-5h-473v6v443v7c1 18 9 33 23 44c8 7 18 9 28 12zM434 -25v5v406c0 15 -8 23 -23 23h-349c-15 0 -23 -9 -23 -24v-404v-6h4h150c4 0 4 1 4 5v87v6h79v-6v-86c0 -5 0 -6 5 -6h147h6zM157 310h-78v59h78v-59zM316 310v59h78v-59
h-78zM157 271v-59h-78v59h78zM394 270v-58h-78v58h78zM79 172h78v-59h-78v59zM316 172h78v-59h-78v59zM79 73h78v-58h-78v58zM394 15h-78v58h78v-58zM198 369h78v-59h-78v59zM197 212v58h78v-58h-78zM197 113v59h78v-59h-78z" />
    <glyph glyph-name="uniF110" unicode="&#xf110;" horiz-adv-x="423" 
d="M215 337v0h-66l-35 79s21 -16 34 -16s34 16 34 16s20 -16 33 -16s35 17 35 17zM148 329h68v-24h-68v24v0zM279 4v0l11 -11c-39 -20 -80 -25 -80 -24c-26 -2 -56 0 -56 0s-154 3 -154 126s148 202 148 202h68s99 -67 131 -152l-77 -14l-7 -1v-93c0 -6 1 -11 4 -17
s7 -11 12 -16zM234 130v0h-29l34 69h-34l-22 -47c-3 -5 -5 -10 -6 -15c-1 4 -3 9 -6 15l-21 47h-34l34 -69h-29v-25h41v-13h-41v-24h41v-30h31v30h41v24h-41v13h41v25zM418 123v0l5 -1v-83c0 -5 -1 -10 -4 -15s-6 -10 -10 -15s-9 -9 -14 -13s-10 -8 -15 -11s-11 -6 -16 -8
s-9 -4 -13 -5h-2h-2c-4 1 -8 3 -13 5s-10 5 -16 8s-12 7 -17 11s-10 8 -14 13s-7 10 -10 15s-4 10 -4 15v83l6 1l69 13zM408 37v0v24h-60v63h-1l-59 -10v-53h60v-75c4 1 8 2 13 4s9 5 13 7s9 5 13 8s8 7 11 10s5 6 7 10s3 8 3 12zM408 37z" />
    <glyph glyph-name="uniF111" unicode="&#xf111;" horiz-adv-x="459" 
d="M177 113v-35l-106 35v35zM177 195v-35l-106 35v35zM177 276v-35l-106 35v35zM386 311v-35l-106 -35v35zM386 230v-35l-106 -35v35zM386 148v-35l-106 -35v35zM424 417c20 0 35 -17 35 -36v-324c0 -13 -7 -24 -17 -30l-213 -60l-212 60c-10 6 -17 17 -17 30v324v0
c0 20 15 36 35 36h2l192 -54l193 54h2zM212 8v323l-177 50v-323zM424 58v323l-177 -50v-323z" />
    <glyph glyph-name="uniF112" unicode="&#xf112;" horiz-adv-x="447" 
d="M224 416c123 0 223 -101 223 -224c0 -124 -100 -224 -223 -224s-224 100 -224 224c0 123 101 224 224 224zM330 111c11 13 8 32 -5 43c-12 10 -30 9 -41 -2l-15 12c17 24 13 56 -8 76l12 15c14 -9 32 -7 43 6c11 14 9 36 -5 47s-35 9 -46 -5c-11 -13 -9 -32 3 -44
l-12 -15c-24 17 -56 13 -76 -8l-15 12c8 11 6 27 -5 36s-28 7 -37 -4s-7 -28 4 -37c10 -8 24 -8 33 0l16 -12c-17 -24 -14 -56 7 -76l-12 -16c-16 11 -39 9 -52 -7c-13 -17 -11 -41 6 -54s41 -12 54 5c13 16 11 38 -3 52l13 15c24 -17 56 -13 76 9l15 -13
c-8 -13 -5 -29 7 -39c13 -11 32 -9 43 4zM149 109c-6 0 -11 5 -11 11s5 12 11 12s11 -6 11 -12s-5 -11 -11 -11zM149 108c8 0 17 -8 18 -19v-3v0v0v0h-3h-31h-3v0v0v0v3c1 12 11 19 19 19zM291 286c-6 0 -10 4 -10 10s4 10 10 10s10 -4 10 -10s-4 -10 -10 -10zM275 265v0v0
v0v3c1 11 9 17 16 17s16 -7 17 -17v-3v0v0v0h-3h-28h-2v0zM223 200c-7 0 -13 6 -13 13s6 13 13 13s13 -6 13 -13s-6 -13 -13 -13zM223 198c9 0 19 -9 21 -22c0 -1 1 -2 1 -3h-1v0v0c-1 0 -2 -1 -3 -1h-36c-1 0 -3 1 -4 1v0v0v0v3c1 15 13 22 22 22zM306 134c-5 0 -9 4 -9 9
s4 9 9 9s9 -4 9 -9s-4 -9 -9 -9zM306 133c6 0 14 -7 15 -16v-2v0v0v0h-2h-25h-3v0v0v0v2c1 10 9 16 15 16zM145 265c-4 0 -8 4 -8 8s4 8 8 8s8 -4 8 -8s-4 -8 -8 -8zM145 264c6 0 12 -5 13 -13v-2v0v0v0c-1 0 -1 -1 -2 -1h-22c-1 0 -2 1 -3 1v0v0v0v2c1 9 8 13 14 13z" />
    <glyph glyph-name="uniF113" unicode="&#xf113;" 
d="M280 448c-57 0 -111 -21 -153 -58l28 -30c35 30 79 48 125 48c106 0 192 -86 192 -192s-86 -191 -192 -191c-102 0 -186 80 -191 181l1 15l47 -12l-33 107l-104 -72l49 -13v-25c5 -123 107 -221 231 -221c128 0 232 103 232 231s-104 232 -232 232zM246 310v-121h7
l116 -58l15 30l-104 52v97h-34z" />
    <glyph glyph-name="uniF114" unicode="&#xf114;" horiz-adv-x="429" 
d="M413 31c18 -18 21 -42 8 -55s-37 -10 -55 8l-94 94v0c-27 -15 -57 -24 -90 -24c-100 0 -182 82 -182 182s82 181 182 181s181 -81 181 -181c0 -43 -15 -84 -40 -115v0zM182 115c66 0 120 55 120 121s-54 120 -120 120s-121 -54 -121 -120s55 -121 121 -121z" />
    <glyph glyph-name="uniF115" unicode="&#xf115;" horiz-adv-x="448" 
d="M214 233v0h-5l-1 1c5 4 10 7 16 9l1 -1l-2 -2h-3v-3h4h3v-14h-5v10h-4v5h-2v-3zM156 107c7 0 15 -6 16 -17v-2v0v0v0h-3h-26h-2v0v0v0v2c1 9 8 17 15 17zM240 222l-3 -3l-3 3v7h3v3h-2v0v8h3v5v0h2h8v-3h4v-5v-6h-3l-2 -2zM281 269v0v0v0c0 1 1 1 1 2c1 11 8 17 15 17
s15 -8 16 -17v-2v0v0v0h-3h-26h-3v0zM152 217h-2h-27h-2v0v0v0v3c1 9 8 16 15 16s15 -5 16 -16v-3v0v0v0zM156 108c-5 0 -9 4 -9 9s4 10 9 10s10 -5 10 -10s-5 -9 -10 -9zM312 97c-5 0 -9 4 -9 9s4 9 9 9s9 -4 9 -9s-4 -9 -9 -9zM297 289c-5 0 -9 4 -9 9s4 10 9 10
s9 -5 9 -10s-4 -9 -9 -9zM312 95c7 0 15 -7 16 -16v-2v0v0v0h-3h-26h-3v0v0v0v2c1 11 9 16 16 16zM232 183l5 -7h5v-12h-5l-2 -4v-7l-7 -5v-9l-8 7v18l-8 8v10l-6 4h-5l-4 4v5l-2 1l-1 -2h1v-5l-3 4l-1 6h-2v11c3 7 8 14 13 19h17l-1 -4h-5v-2l2 -1l-2 -2h-4l2 -3l5 -3l1 -3
h2v9h4v-1h5v-6h-2v-2h-2v-2h3l-2 -2l-1 1l-2 -2v-1l-1 -2l-2 -2l-3 -2l-1 -2v-5h-3v3h-7v-3l7 -7h15v-2h5zM224 416c124 0 224 -100 224 -224s-100 -224 -224 -224s-224 100 -224 224s100 224 224 224zM299 320c-20 0 -36 -14 -36 -32c0 -12 7 -23 18 -28l-6 -14l18 11
c2 0 5 -1 7 -1c20 0 36 15 36 33s-17 31 -37 31zM101 237c0 -18 16 -33 36 -33c2 0 4 1 6 1l19 -11l-7 15c11 5 19 15 19 27c0 18 -16 33 -36 33s-37 -14 -37 -32zM158 75c20 0 36 15 36 33c0 12 -7 22 -18 27l7 14l-19 -10h-6c-20 0 -37 -15 -37 -33s17 -31 37 -31z
M184 191c0 -31 25 -56 56 -56s56 25 56 56s-25 56 -56 56s-56 -25 -56 -56zM310 64c20 0 37 13 37 31s-16 33 -36 33h-7l-18 10l6 -14c-11 -5 -18 -16 -18 -28c0 -18 16 -32 36 -32zM282 189v-4l-5 -5v-7v-7h-4v-7l-2 -3h-7v6l-4 4v12l-5 4h-10l-4 4v10l4 3h5l4 4h2h2v-2h13
v2h-3l2 2l2 2h3l-2 2h-3l-3 -3v-3l-4 4h-2l3 -3h-2l-2 2v1l-3 3l-3 -2l-2 -2v-4h-4v2v5h2v2l1 1l-2 1l-2 -2l-2 2l1 1v1v4h4v-2l3 -3h2v2h7v3h2v3h-2v3h-2v-6l-1 -2l-3 2l-4 1l1 3l4 3l2 5l5 1l-1 -2l3 -1v-2h3l2 1v2h7c10 -10 16 -24 16 -39v-3l-11 12l-2 -1l4 -4v-4h-7
l-4 4v2h-2v-3l5 -5h5zM136 237c-5 0 -9 4 -9 9s4 10 9 10s10 -5 10 -10s-5 -9 -10 -9z" />
    <glyph glyph-name="uniF116" unicode="&#xf116;" 
d="M250 107l-29 -74l3 -21h-224s1 38 35 71c15 15 107 37 134 56c15 10 23 28 27 42c-12 9 -19 19 -23 33c-3 8 -6 17 -8 26v0c-12 -4 -17 11 -23 29s-12 32 0 36c2 1 5 1 8 1c-2 11 -3 22 -3 30c0 61 47 112 109 112s109 -49 109 -110c0 -8 -1 -18 -3 -29c3 0 6 4 8 3
c12 -4 6 -11 0 -29s-11 -47 -23 -15v0c-2 -32 -5 -30 -8 -38c-4 -14 -11 -38 -23 -47c4 -14 12 -31 27 -41c27 -19 119 -44 134 -59c34 -33 35 -71 35 -71h-219l4 19l-30 78l19 19l-28 29l-29 -29z" />
    <glyph glyph-name="uniF117" unicode="&#xf117;" horiz-adv-x="447" 
d="M132 126c7 0 12 -5 12 -12s-5 -12 -12 -12s-12 5 -12 12s5 12 12 12zM224 416c123 0 223 -101 223 -224s-100 -224 -223 -224s-224 101 -224 224s101 224 224 224zM161 109v97c0 10 -8 17 -18 17h-34v-132h34c10 0 18 8 18 18zM325 157c7 1 13 8 13 17s-7 17 -15 17h-3
c6 2 10 9 10 16c0 9 -6 16 -14 16h-64c15 26 23 49 10 63c-14 15 -29 3 -31 -17s-9 -27 -16 -36s-23 -23 -29 -26s-20 -1 -20 -1v-102s22 8 42 -1c21 -9 58 -6 58 -6h47c8 0 14 8 14 17c0 6 -2 10 -6 13c6 2 11 8 11 16c0 6 -3 11 -7 14z" />
    <glyph glyph-name="uniF118" unicode="&#xf118;" 
d="M477 65c34 -33 35 -90 35 -90h-512s1 57 35 90c15 15 107 56 134 75c15 10 23 28 27 42c-12 9 -19 19 -23 33c-3 8 -6 17 -8 26v0c-12 -4 -17 11 -23 29s-11 32 1 36c2 1 4 0 7 0c-2 11 -3 23 -3 31c0 61 47 111 109 111s109 -50 109 -111c0 -8 -1 -20 -3 -31
c3 0 6 1 8 0c12 -4 6 -19 0 -37s-11 -33 -23 -29v0c-2 -9 -5 -18 -8 -26c-4 -14 -11 -26 -23 -35c4 -14 12 -35 27 -45c27 -19 119 -54 134 -69z" />
    <glyph glyph-name="uniF119" unicode="&#xf119;" horiz-adv-x="489" 
d="M398 -31h-307c-38 0 -66 13 -81 39s-13 58 6 91l153 265c19 33 47 51 76 51s56 -18 75 -51l153 -265c19 -33 22 -65 7 -91s-44 -39 -82 -39zM245 371c-13 0 -26 -11 -37 -29l-153 -265c-11 -18 -13 -35 -7 -46s22 -18 43 -18h307c21 0 37 7 43 18s4 28 -7 46l-153 265
c-11 18 -23 29 -36 29zM241 36c-15 0 -26 11 -26 27c0 15 11 27 26 27s26 -11 26 -27s-11 -27 -26 -27zM223 105l-5 165h46l-6 -165h-35z" />
    <glyph glyph-name="uniF11A" unicode="&#xf11a;" horiz-adv-x="508" 
d="M249 342v0c-7 4 -12 9 -16 16c0 1 -1 1 -1 2v2c4 7 10 12 17 16c1 0 1 1 2 1s1 -1 1 -1c7 -4 13 -9 17 -16v-2v-2c-4 -7 -10 -12 -17 -16h-1h-2zM448 338v0c5 -3 10 -7 13 -12v-1v-2c-3 -5 -7 -9 -12 -12h-2h-1c-5 3 -9 7 -12 12c0 0 -1 1 -1 2v1c3 5 8 9 13 12h1h1z
M508 311v0c2 -1 -22 -35 -30 -37c-207 -25 -296 8 -352 35c-21 -24 -47 -38 -75 -38c-21 0 -38 8 -45 20v0c-16 23 -2 57 48 57c21 0 40 -6 62 -14c6 10 10 21 14 33h-83v9h43v22h-55v10h55v20c0 2 1 2 2 3c1 0 1 1 2 1h23v-24h53v-10h-53v-22h42c-5 -19 -12 -35 -21 -50
c16 -6 33 -11 53 -16v71c-8 -6 -17 -10 -25 -12h-1v1h-1l1 1c19 18 30 40 34 58c0 0 1 3 4 3h24c-3 -12 -6 -18 -11 -27v-101c20 -4 41 -6 67 -8v93h-62v9h62v31c0 1 1 3 2 3h2h21v-34h15v-9h-15v-95c23 -1 48 0 77 2v51h-49v9h49v24h-56v32c0 1 1 3 1 4c1 2 3 3 6 3h49v11
c0 2 1 2 2 3c1 0 1 1 2 1h24v-15h44c7 0 12 -4 11 -12c0 -5 -1 -22 -2 -26h-53v-25h47v-9h-47v-49c29 3 60 7 95 13zM357 390h84c0 6 1 13 1 17c0 1 -1 3 -5 3h-77h-2s-2 -1 -2 -3v-17h1zM46 285v0c21 0 43 13 60 34c-21 10 -38 17 -57 17c-14 0 -25 -3 -33 -9
c-16 -16 -5 -42 30 -42z" />
  </font>
</defs>
</svg>
