<?xml version="1.0" encoding="utf-8"?>
<!DOCTYPE svg PUBLIC "-//W3C//DTD SVG 1.1//EN" "http://www.w3.org/Graphics/SVG/1.1/DTD/svg11.dtd">
<svg version="1.1" id="图形" xmlns="http://www.w3.org/2000/svg" xmlns:xlink="http://www.w3.org/1999/xlink" x="0px" y="0px" width="1024px" height="1024px" viewBox="0 0 1024 1024" enable-background="new 0 0 1024 1024" xml:space="preserve">
  <path fill="#272636" d="M140.628878 667.644241l653.835356 0 0-481.793024 79.916121 0 0 481.793024c0 43.166125-35.311227 78.477352-78.477352 78.477352l-655.274124 0c-43.146683 0-78.477352-35.311227-78.477352-78.477352L62.151525 19.804437c0-43.166125 35.329646-78.477352 78.477352-78.477352l480.081033 0 0 78.477352L140.628878 19.804437 140.628878 667.644241zM234.70858 481.957145l464.475614 0 0-79.921237-464.475614 0 0 79.921237ZM874.385471 21.261625 874.385471 108.724629 794.464233 108.724629 794.464233 21.261625 707.001229 21.261625 707.001229-58.658589 794.464233-58.658589 794.464233-146.121594 874.385471-146.121594 874.385471-58.658589 961.847451-58.658589 961.847451 21.261625Z" transform="translate(0, 812) scale(1, -1)"/>
</svg>
