<?xml version="1.0" encoding="utf-8"?>
<!DOCTYPE svg PUBLIC "-//W3C//DTD SVG 1.1//EN" "http://www.w3.org/Graphics/SVG/1.1/DTD/svg11.dtd">
<svg version="1.1" id="图形" xmlns="http://www.w3.org/2000/svg" xmlns:xlink="http://www.w3.org/1999/xlink" x="0px" y="0px" width="1024px" height="1024px" viewBox="0 0 1024 1024" enable-background="new 0 0 1024 1024" xml:space="preserve">
  <path fill="#272636" d="M513.481747 747.12955c-246.943228 0-447.14797-199.181435-447.14797-444.844507 0-245.700935 200.204741-444.878277 447.14797-444.878277 246.967788 0 447.221648 199.177342 447.221648 444.878277C960.703395 547.948115 760.449535 747.12955 513.481747 747.12955zM368.08324 396.521311c1.163499 8.241708 3.795443 15.912411 7.690146 22.898523 11.469216 20.614503 33.277918 34.744315 58.650795 34.744315 5.919826 0 14.486946-3.599991 20.020986-5.008061 10.19827 28.909423 34.957163 52.40351 67.488067 52.40351 39.811728 0 72.211649-31.107485 74.499761-70.134337 2.287089 0.37453 4.762467 0.561795 7.435343 0.561795 13.289678 0 25.341155-4.823865 34.974559-12.568247 7.510044-6.048763 13.477966-13.81361 17.076934-22.898523 2.484587-6.321986 3.984754-13.18837 3.984754-20.394493 0-30.79026-25.161053-55.82033-56.036247-55.82033-23.062252 0-133.887336 0-169.444157 0-37.155225 0-67.283406 29.945009-67.283406 66.937528C367.140775 390.412173 367.672894 393.454462 368.08324 396.521311zM610.68765 189.953651l0 49.332569 47.710628 0c0.060375-0.969071 0.291642-1.890047 0.291642-2.874467 0-25.924439-21.125133-46.941102-47.184649-46.941102C609.856725 189.470651 612.293217 189.789922 610.68765 189.953651zM598.987167 250.782042l0-49.332569c-23.763217 2.431376-42.369993 22.174022-42.369993 46.458101 0 25.925463 21.125133 46.941102 47.184649 46.941102 25.069979 0 45.372374-19.507286 46.893007-44.067658L598.987167 250.781018zM521.951653 285.643014l0-95.798856-28.887934 0 0 95.798856L521.951653 285.643014zM465.72507 257.564515l0-67.720358L432.985412 189.844158l0 67.720358L465.72507 257.564515zM413.725766 280.688165l0-90.844008-36.592406 0 0 90.844008L413.725766 280.688165zM299.774481 404.917538c0 7.957229 6.541997 14.502295 14.551414 14.502295l48.215118 0c-3.245927-7.140631-5.197372-14.853289-6.139837-22.898523l-33.613562 0L322.787614 169.053646l381.470131 0L704.257745 396.521311l-36.121685 0c-2.713808 8.498558-7.02602 16.226566-12.674671 22.898523l57.249889 0c8.001231 0 14.543228-6.545066 14.543228-14.502295l0-251.531733c0-1.933025-0.385786-3.718695-1.099031-5.443989L300.872488 147.941815c-0.696872 1.724271-1.098008 3.510964-1.098008 5.443989L299.774481 404.917538zM763.65453 102.984904c-18.216897 0-482.047828 0-500.256538 0-18.191314 0-18.191314 18.114566-18.191314 18.114566l55.666834 0 425.282986 0 55.67502 0C781.830495 121.099471 781.830495 102.984904 763.65453 102.984904z" transform="translate(0, 812) scale(1, -1)"/>
</svg>
