<?xml version="1.0" encoding="utf-8"?>
<!DOCTYPE svg PUBLIC "-//W3C//DTD SVG 1.1//EN" "http://www.w3.org/Graphics/SVG/1.1/DTD/svg11.dtd">
<svg version="1.1" id="图形" xmlns="http://www.w3.org/2000/svg" xmlns:xlink="http://www.w3.org/1999/xlink" x="0px" y="0px" width="1024px" height="1024px" viewBox="0 0 1024 1024" enable-background="new 0 0 1024 1024" xml:space="preserve">
  <path fill="#272636" d="M512.002047 748.703395c-247.818155 0-448.732048-200.912869-448.732048-448.685999 0-247.823272 200.913892-448.720791 448.732048-448.720791 247.78234 0 448.727954 200.897519 448.727954 448.720791C960.730001 547.790526 759.784386 748.703395 512.002047 748.703395zM613.171214 105.649594 400.033929 105.649594c-13.564947 0-24.568559 11.992125-24.568559 27.773554 0 15.779382 11.003612 27.771507 24.568559 27.771507l213.138308 0c13.554714 0 24.557302-11.991102 24.557302-27.771507C637.729539 117.641719 626.726951 105.649594 613.171214 105.649594zM720.377888 359.045791c-3.106758-11.238972-10.351766-16.817014-18.101263-19.412119-6.509251-3.712555-14.022365-5.863545-22.050202-5.863545-1.505283 0-2.989077 0.079818-4.452405 0.224104l-0.462534-3.585665c0 0-22.676465-130.796952-51.263547-130.796952-30.730908 0-204.142423-0.760317-228.910527 0.497327-26.299993 1.333368-42.965557 122.040521-44.582381 134.229121-2.215458-0.338714-4.468778-0.567935-6.780427-0.567935-8.262174 0-15.975856 2.287089-22.610974 6.203282-5.699816 2.993171-9.822716 7.049556-12.808724 11.367909-5.736655 7.504928-9.184173 16.8559-9.184173 27.033703 0 7.589862 1.908466 14.729469 5.249561 20.985964 7.082302 18.038842 21.932522 21.581528 28.52159 22.239514 3.473101 0.867764 7.090489 1.38044 10.833743 1.38044 24.636097 0 44.60694-19.971867 44.60694-44.604894 0-15.068184-7.492648-28.362978-18.930141-36.437887 6.744611-9.011234 29.500894-37.278022 46.651506-33.138748 20.017916 4.827959 28.757974 96.736205 28.757974 96.736205-3.102664 0.285502-5.89015 0.9967-8.41567 2.01796-17.569144 5.989411-30.223349 22.595624-30.223349 42.190915 0 24.63405 19.973914 44.604894 44.60694 44.604894 24.636097 0 44.60694-19.971867 44.60694-44.604894 0-16.510022-8.992815-30.887474-22.324448-38.60218 4.240581-10.955516 24.081465-60.20315 38.126342-60.367903 13.548574-0.168846 33.426297 47.206138 38.400588 59.615773-14.049994 7.511067-23.617907 22.310122-23.617907 39.355333 0 24.63405 19.971867 44.604894 44.604894 44.604894 24.635073 0 44.60694-19.971867 44.60694-44.604894 0-22.217001-16.260335-40.58637-37.518498-43.988864 0.326435-6.850012 4.926196-94.589308 26.030863-100.570533 13.687744-3.874237 42.491767 28.019147 50.347688 37.09792-11.174504 8.105608-18.469654 21.23258-18.469654 36.093033 0 24.633027 19.96982 44.604894 44.604894 44.604894 9.451256 0 18.203594-2.960425 25.416879-7.975649 2.095731-1.367137 3.9121-2.905166 5.52483-4.54348 8.40953-8.112772 13.663184-19.476587 13.663184-32.087812C724.831316 371.442122 723.202213 364.901149 720.377888 359.045791z" transform="translate(0, 812) scale(1, -1)"/>
</svg>
