<?xml version="1.0" encoding="utf-8"?>
<!-- Generator: Adobe Illustrator 17.0.0, SVG Export Plug-In . SVG Version: 6.00 Build 0)  -->
<!DOCTYPE svg PUBLIC "-//W3C//DTD SVG 1.1//EN" "http://www.w3.org/Graphics/SVG/1.1/DTD/svg11.dtd">
<svg version="1.1" id="图层_1" xmlns="http://www.w3.org/2000/svg" xmlns:xlink="http://www.w3.org/1999/xlink" x="0px" y="0px"
	 width="35px" height="29.294px" viewBox="0 0 35 29.294" enable-background="new 0 0 35 29.294" xml:space="preserve">
<g>
	<path fill="#FFFFFF" d="M30.734,2.875v3.562h-5V2.875H8.909v3.562h-5V2.875H0v26.419h35V2.875H30.734z M7.062,26.225h-4v-4h4
		V26.225z M7.062,20.1h-4v-4h4V20.1z M7.062,13.975h-4v-4h4V13.975z M13.281,26.225h-4v-4h4V26.225z M13.281,20.1h-4v-4h4V20.1z
		 M13.281,13.975h-4v-4h4V13.975z M19.5,26.225h-4v-4h4V26.225z M19.5,20.1h-4v-4h4V20.1z M19.5,13.975h-4v-4h4V13.975z
		 M25.719,26.225h-4v-4h4V26.225z M25.719,20.1h-4v-4h4V20.1z M25.719,13.975h-4v-4h4V13.975z M31.938,26.225h-4v-4h4V26.225z
		 M31.938,20.1h-4v-4h4V20.1z M31.938,13.975h-4v-4h4V13.975z"/>
	<rect x="5.659" y="0" fill="#FFFFFF" width="2.25" height="5.25"/>
	<rect x="26.659" y="0" fill="#FFFFFF" width="2.25" height="5.25"/>
</g>
</svg>
