<?xml version="1.0" encoding="utf-8"?>
<!-- Generator: Adobe Illustrator 17.0.0, SVG Export Plug-In . SVG Version: 6.00 Build 0)  -->
<!DOCTYPE svg PUBLIC "-//W3C//DTD SVG 1.1//EN" "http://www.w3.org/Graphics/SVG/1.1/DTD/svg11.dtd">
<svg version="1.1" id="图层_1" xmlns="http://www.w3.org/2000/svg" xmlns:xlink="http://www.w3.org/1999/xlink" x="0px" y="0px"
	 width="16px" height="13.907px" viewBox="0 0 16 13.907" enable-background="new 0 0 16 13.907" xml:space="preserve">
<g>
	<path fill="#CDD0D2" d="M4.094,0.216H0.682C0.305,0.216,0,0.521,0,0.898v12.281c0,0.377,0.305,0.682,0.682,0.682h3.411
		c0.377,0,0.682-0.305,0.682-0.682V0.898C4.776,0.521,4.47,0.216,4.094,0.216z M3.527,11.257H1.248V10.28h2.279V11.257z
		 M3.527,2.874H1.248V1.898h2.279V2.874z"/>
	<path fill="#CDD0D2" d="M8.847,0.216H5.435c-0.108,0-0.206,0.03-0.297,0.075c0.104,0.18,0.168,0.385,0.168,0.607v12.281
		c0,0.222-0.064,0.428-0.168,0.607c0.091,0.045,0.189,0.075,0.297,0.075h3.411c0.377,0,0.682-0.305,0.682-0.682V0.898
		C9.529,0.521,9.224,0.216,8.847,0.216z M8.28,11.257H6.002V10.28H8.28V11.257z M8.28,2.874H6.002V1.898H8.28V2.874z"/>
	<path fill="#CDD0D2" d="M14.868,0.62c-0.035-0.375-0.367-0.651-0.742-0.617l-3.397,0.314c-0.375,0.035-0.651,0.367-0.617,0.742
		l1.129,12.229c0.035,0.375,0.367,0.651,0.742,0.617l3.397-0.314c0.375-0.035,0.651-0.367,0.617-0.742L14.868,0.62z M11.592,3.007
		l-0.098-0.972l2.267-0.229l0.098,0.972L11.592,3.007z M12.433,11.348l-0.098-0.972l2.267-0.229l0.098,0.972L12.433,11.348z"/>
</g>
</svg>
