<?xml version="1.0" encoding="utf-8"?>
<!DOCTYPE svg PUBLIC "-//W3C//DTD SVG 1.1//EN" "http://www.w3.org/Graphics/SVG/1.1/DTD/svg11.dtd">
<svg version="1.1" id="图形" xmlns="http://www.w3.org/2000/svg" xmlns:xlink="http://www.w3.org/1999/xlink" x="0px" y="0px" width="1024px" height="1024px" viewBox="0 0 1024 1024" enable-background="new 0 0 1024 1024" xml:space="preserve">
  <path fill="#272636" d="M585.352635 147.526353c-1.762133 1.77032-3.89368 2.934842-6.149047 3.590781-4.894474 1.410116-10.354835 0.26299-14.207583-3.574409-0.827855-0.837064-1.49198-1.738597-2.081405-2.705622-0.574075-0.918929-1.000793-1.86958-1.320065-2.854001-1.704828-5.048993-0.63138-10.806113 3.38612-14.805194 5.607718-5.608741 14.732539-5.608741 20.349467 0 5.000897 4.968152 5.541203 12.706393 1.688455 18.331507C586.541717 146.214475 586.001411 146.90316 585.352635 147.526353zM512.002047 747.158203c-246.964718 0-447.186855-200.221114-447.186855-447.140807 0-246.969834 200.222137-447.175599 447.186855-447.175599 246.928902 0 447.182762 200.205764 447.182762 447.175599C959.184809 546.937089 758.930949 747.158203 512.002047 747.158203zM603.488691 108.075853c0-5.131881-5.288446-9.31311-11.740392-9.31311l-158.037363 0.147356c-6.456039 0-11.661597 4.197602-11.632945 9.31311l0 52.601009c0.00921 5.116531 5.284353 9.296737 11.735275 9.296737l0.402159 0 9.362228 0 136.339178-0.130983 11.158131 0 0.77055 0c6.427386 0 11.732206-4.197602 11.69946-9.329483L603.488691 108.075853zM551.609113 396.05366c0 8.27957 5.434779 15.002692 12.166087 15.002692 6.697539 0 12.133342-6.723122 12.133342-15.002692 0-8.280594-5.435803-15.019065-12.133342-15.019065C557.043892 381.033571 551.609113 387.773066 551.609113 396.05366zM672.28966 177.827473c-14.867616 0-50.265824 0-92.338035 0 0 2.055822 0 4.473895 0 5.230118 0 4.13211 1.254573 12.281721 2.942005 21.512966 0.205685 1.082658 0.426719 2.196015 0.624217 3.296069 0.679475 3.607154 1.426489 7.312546 2.187829 10.968819l46.787606 45.419446c8.272407 7.985882 8.485255 21.184485 0.443092 29.432333-1.058099 1.115404-2.206248 2.032286-3.443425 2.835581-7.960299 5.313006-18.848277 4.558829-26.00528-2.393513l-18.758226-18.168802L584.729441 287.194346 584.729441 301.541099c0 0.213871-0.032746 0.426719-0.032746 0.606821l0 67.422575 0 10.526751 0 0.557702 0 17.169031c0 0.228197-0.008186 0.457418-0.032746 0.704035-0.025583 0.410346-0.091074 0.820692-0.122797 1.246387-0.598634 6.39464-4.025687 11.984962-9.075703 15.347546-3.320629 2.196015-7.297197 3.508917-11.584849 3.508917-11.526521 0-20.832468-9.280364-20.832468-20.806885l0-2.558265 0-0.459464 0-15.839757 0-0.410346 0-11.837606 0-0.886183 0-22.627347-2.672876 0c-0.688685 2.197038-1.729387 4.263094-3.041266 6.067182-1.434675 1.984191-3.255137 3.672646-5.272074 5.034666-3.327792 2.197038-7.2798 3.590781-11.592013 3.590781-9.349949 0-17.273409-6.198166-19.885909-14.691607l-4.898567 0c-0.6191 2.066055-1.598404 3.952009-2.795673 5.722328-1.467421 2.116197-3.368724 3.918239-5.529947 5.378497-3.316535 2.197038-7.263427 3.590781-11.596106 3.590781-9.337669 0-17.265222-6.198166-19.897166-14.691607l-3.623527 0c-0.77055 0-1.475608-0.065492-2.217505-0.11461-1.110287 2.196015-2.631944 4.13211-4.447289 5.788843-0.766456 0.737804-1.614777 1.410116-2.488681 1.983167-3.320629 2.24718-7.275707 3.558036-11.56336 3.558036-5.583159 0-10.621918-2.212388-14.368242-5.820566l0-102.413508 0-16.889669c0-6.967692 2.464121-13.412474 6.574742-18.478863 0.786922-0.984421 1.635243-1.902326 2.541893-2.772136 0.553609-0.524956 1.102101-1.033539 1.688455-1.524726 7.973602-8.263198 14.586207-16.036231 15.512299-21.938662 0.078795-0.459464 0.130983-0.935302 0.130983-1.37737 0-0.75213 0-3.357468 0-5.378497-29.719882 0-55.478546 0-72.03871 0-65.976644 0-119.458719 53.470819-119.458719 119.43416 0 65.99711 53.482075 119.466905 119.458719 119.466905 10.481725 0 25.747407-6.476505 35.44221-9.002025 18.167778 51.501978 62.126966 93.510744 119.832226 93.510744 70.703295 0 128.460744-55.404867 132.256186-125.172861 4.328585 0.590448 8.689916 0.982374 13.19144 0.982374 55.011918 0 99.610672-44.598754 99.610672-99.593276C771.900332 222.42725 727.300554 177.827473 672.28966 177.827473z" transform="translate(0, 812) scale(1, -1)"/>
</svg>
