<?xml version="1.0" encoding="utf-8"?>
<!-- Generator: Adobe Illustrator 17.0.0, SVG Export Plug-In . SVG Version: 6.00 Build 0)  -->
<!DOCTYPE svg PUBLIC "-//W3C//DTD SVG 1.1//EN" "http://www.w3.org/Graphics/SVG/1.1/DTD/svg11.dtd">
<svg version="1.1" id="图层_1" xmlns="http://www.w3.org/2000/svg" xmlns:xlink="http://www.w3.org/1999/xlink" x="0px" y="0px"
	 width="54px" height="49.761px" viewBox="0 0 54 49.761" enable-background="new 0 0 54 49.761" xml:space="preserve">
<g>
	<path fill="#606061" d="M4.176,32.864c0.013,2.049,0.519,3.646,1.933,4.828c0.421,0.352,0.93,0.664,1.45,0.82
		c7.508,2.255,15.025,4.478,22.538,6.719c0.329,0.098,0.521,0.063,0.755-0.22c6.01-7.257,12.029-14.506,18.06-21.746
		c0.319-0.383,0.434-0.722,0.336-1.226c-0.328-1.698-0.163-3.369,0.428-4.997c0.361-0.994,1.218-1.601,2.168-1.534
		c0.952,0.067,1.753,0.812,1.887,1.838c0.046,0.351-0.02,0.744-0.135,1.085c-0.444,1.321-0.456,2.624,0.021,3.937
		c0.32,0.882,0.074,1.649-0.509,2.35c-3.238,3.894-6.471,7.792-9.706,11.688c-3.382,4.073-6.781,8.131-10.135,12.226
		c-0.862,1.053-1.805,1.358-3.112,0.965c-8.015-2.405-16.046-4.755-24.059-7.166c-2.308-0.694-3.869-2.34-4.957-4.425
		c-1.31-2.511-1.376-5.168-0.78-7.883c0.423-1.929,1.018-3.797,2.273-5.351c1.018-1.262,2.151-2.432,3.235-3.64
		c5.943-6.617,11.887-13.234,17.831-19.85c0.519-0.577,1.007-1.214,1.869-1.271c0.347-0.023,0.709-0.014,1.047,0.061
		c8.48,1.885,16.958,3.78,25.435,5.676c1.936,0.433,2.563,2.303,1.27,3.793c-7.193,8.291-14.4,16.57-21.573,24.877
		c-0.917,1.062-1.885,1.342-3.228,0.95c-6.816-1.986-13.647-3.921-20.475-5.865c-0.351-0.1-0.725-0.162-1.09-0.167
		C5.486,29.317,4.641,30,4.356,31.444C4.248,31.995,4.213,32.561,4.176,32.864z M38.351,16.08c0.924-0.04,1.553-0.206,2.016-0.722
		c0.565-0.629,1.111-1.277,1.637-1.939c0.358-0.451,0.23-0.92-0.287-1.175c-0.204-0.101-0.423-0.182-0.643-0.235
		C36.046,10.785,31.018,9.56,25.988,8.35c-1.152-0.277-2.162-0.049-2.917,0.953c-0.328,0.436-0.697,0.841-1.05,1.258
		c-0.737,0.871-0.592,1.353,0.513,1.692c0.084,0.026,0.171,0.041,0.256,0.062c4.291,1.049,8.582,2.101,12.874,3.145
		C36.636,15.697,37.615,15.911,38.351,16.08z"/>
</g>
</svg>
