<?xml version="1.0" encoding="utf-8"?>
<!DOCTYPE svg PUBLIC "-//W3C//DTD SVG 1.1//EN" "http://www.w3.org/Graphics/SVG/1.1/DTD/svg11.dtd">
<svg version="1.1" id="图形" xmlns="http://www.w3.org/2000/svg" xmlns:xlink="http://www.w3.org/1999/xlink" x="0px" y="0px" width="1024px" height="1024px" viewBox="0 0 1024 1024" enable-background="new 0 0 1024 1024" xml:space="preserve">
  <path fill="#272636" d="M871.557052 747.786513 150.301168 747.786513c-47.424102 0-86.256526-38.810934-86.256526-86.256526l0-721.271234c0-47.445592 38.832424-86.256526 86.256526-86.256526l721.255885 0c47.445592 0 86.256526 38.810934 86.256526 86.256526L957.813578 661.528963C957.813578 708.974555 919.002644 747.786513 871.557052 747.786513zM261.428128-59.742271 150.301168-59.742271 150.301168 661.528963 261.428128 661.528963 261.428128-59.742271zM871.557052-59.742271l-523.871375 0L347.685677 661.528963l161.723312 0 0-276.544407 85.603657 81.528851 103.94642-81.528851L698.959066 661.528963l172.597987 0L871.557052-59.742271z" transform="translate(0, 812) scale(1, -1)"/>
</svg>
