<?xml version="1.0" encoding="utf-8"?>
<!-- Generator: Adobe Illustrator 17.0.0, SVG Export Plug-In . SVG Version: 6.00 Build 0)  -->
<!DOCTYPE svg PUBLIC "-//W3C//DTD SVG 1.1//EN" "http://www.w3.org/Graphics/SVG/1.1/DTD/svg11.dtd">
<svg version="1.1" id="图层_1" xmlns="http://www.w3.org/2000/svg" xmlns:xlink="http://www.w3.org/1999/xlink" x="0px" y="0px"
	 width="11.855px" height="12.837px" viewBox="0 0 11.855 12.837" enable-background="new 0 0 11.855 12.837" xml:space="preserve">
<g>
	<path fill="#CDD0D2" d="M1.285,0c3.095,0,6.189,0,9.284,0c0.01,0.007,0.019,0.017,0.03,0.019c0.799,0.165,1.255,0.723,1.255,1.543
		c0.001,3.713,0,7.427,0,11.14c0,0.044,0,0.089,0,0.135c-3.96,0-7.904,0-11.855,0c0-0.056,0-0.101,0-0.147C0,8.989,0,5.288,0,1.588
		C0,1.529,0,1.47,0.003,1.412c0.023-0.452,0.218-0.816,0.569-1.1C0.781,0.143,1.03,0.064,1.285,0z M10.87,11.861
		c0-0.058,0-0.095,0-0.133c0-3.391,0-6.783,0-10.174c0-0.372-0.198-0.568-0.578-0.568c-2.911,0-5.821-0.001-8.732,0
		c-0.383,0-0.575,0.196-0.575,0.582c0,3.383,0,6.766,0,10.149c0,0.044,0,0.088,0,0.137c0.042,0.003,0.066,0.006,0.091,0.006
		c1.25,0,2.501-0.001,3.751,0.002c0.099,0,0.117-0.035,0.116-0.124c-0.003-0.732-0.002-1.464-0.002-2.195c0-0.048,0-0.097,0-0.15
		c0.664,0,1.31,0,1.972,0c0,0.055,0,0.104,0,0.152c0,0.723,0.002,1.447-0.002,2.17c-0.001,0.113,0.026,0.148,0.144,0.148
		c1.225-0.004,2.451-0.003,3.676-0.003C10.772,11.861,10.813,11.861,10.87,11.861z"/>
	<path fill="#CDD0D2" d="M3.941,3.454c-0.653,0-1.299,0-1.956,0c0-0.486,0-0.972,0-1.467c0.65,0,1.299,0,1.956,0
		C3.941,2.476,3.941,2.962,3.941,3.454z"/>
	<path fill="#CDD0D2" d="M7.912,3.455c0-0.495,0-0.978,0-1.468c0.655,0,1.304,0,1.961,0c0,0.49,0,0.977,0,1.468
		C9.218,3.455,8.572,3.455,7.912,3.455z"/>
	<path fill="#CDD0D2" d="M3.942,4.45c0,0.496,0,0.979,0,1.469c-0.655,0-1.304,0-1.96,0c0-0.491,0-0.978,0-1.469
		C2.637,4.45,3.283,4.45,3.942,4.45z"/>
	<path fill="#CDD0D2" d="M9.872,4.453c0,0.489,0,0.975,0,1.468c-0.653,0-1.3,0-1.956,0c0-0.487,0-0.973,0-1.468
		C8.565,4.453,9.214,4.453,9.872,4.453z"/>
	<path fill="#CDD0D2" d="M1.99,6.926c0.651,0,1.297,0,1.95,0c0,0.492,0,0.978,0,1.47c-0.649,0-1.292,0-1.95,0
		C1.99,7.912,1.99,7.424,1.99,6.926z"/>
	<path fill="#CDD0D2" d="M7.913,6.925c0.655,0,1.301,0,1.957,0c0,0.49,0,0.975,0,1.469c-0.653,0-1.301,0-1.957,0
		C7.913,7.906,7.913,7.423,7.913,6.925z"/>
	<path fill="#CDD0D2" d="M1.983,9.39c0.658,0,1.3,0,1.954,0c0,0.488,0,0.974,0,1.469c-0.646,0-1.296,0-1.954,0
		C1.983,10.373,1.983,9.887,1.983,9.39z"/>
	<path fill="#CDD0D2" d="M9.872,10.862c-0.651,0-1.298,0-1.955,0c0-0.484,0-0.97,0-1.466c0.647,0,1.296,0,1.955,0
		C9.872,9.882,9.872,10.368,9.872,10.862z"/>
	<path fill="#CDD0D2" d="M4.953,1.986c0.655,0,1.301,0,1.954,0c0,0.491,0,0.974,0,1.466c-0.65,0-1.296,0-1.954,0
		C4.953,2.967,4.953,2.481,4.953,1.986z"/>
	<path fill="#CDD0D2" d="M4.947,5.919c0-0.491,0-0.975,0-1.466c0.652,0,1.298,0,1.955,0c0,0.486,0,0.972,0,1.466
		C6.255,5.919,5.609,5.919,4.947,5.919z"/>
	<path fill="#CDD0D2" d="M4.949,8.387c0-0.482,0-0.965,0-1.457c0.651,0,1.3,0,1.957,0c0,0.483,0,0.963,0,1.457
		C6.257,8.387,5.607,8.387,4.949,8.387z"/>
</g>
</svg>
