<?xml version="1.0" encoding="utf-8"?>
<!DOCTYPE svg PUBLIC "-//W3C//DTD SVG 1.1//EN" "http://www.w3.org/Graphics/SVG/1.1/DTD/svg11.dtd">
<svg version="1.1" id="图形" xmlns="http://www.w3.org/2000/svg" xmlns:xlink="http://www.w3.org/1999/xlink" x="0px" y="0px" width="1024px" height="1024px" viewBox="0 0 1024 1024" enable-background="new 0 0 1024 1024" xml:space="preserve">
  <path fill="#272636" d="M519.605212 589.50151 588.673264 749.575252c0 0-43.592844-34.011628-69.068052-34.011628-25.50693 0-65.86715 33.037441-65.86715 33.037441s-43.560098-33.037441-69.048609-33.037441c-25.50693 0-66.965158 31.990598-66.965158 31.990598l70.128197-158.053736L519.605212 589.500487 519.605212 589.50151zM385.731178 573.504164l135.990231 0 0-48.022737L385.731178 525.481428 385.731178 573.504164 385.731178 573.504164zM646.325311-76.045585c-9.380648 10.383488-16.972557 21.097504-22.777773 32.157397-5.811356 11.050684-8.719592 22.163789-8.719592 33.329083L614.827947 175.705136l13.733792 2.02103 154.175405 28.794813c-64.87352 170.893158-261.313517 302.95901-261.313517 302.95901L385.731178 509.479989c0 0-296.701492-158.183695-296.701492-403.623687 0-245.431805 308.040748-252.490571 308.040748-252.490571s60.430324-4.231371 111.883183 0c0-1.122567 83.011622 7.187703 160.860664 47.982828C661.253302-91.428947 653.416823-83.900483 646.325311-76.045585L646.325311-76.045585zM556.274366 175.225205l0-48.26219-82.104973 0 0-26.246781 82.104973 0 0-48.26219-82.104973 0 0-59.614749-61.413721 0 0 59.614749-81.030501 0 0 48.26219 81.030501 0 0 26.246781-81.030501 0 0 48.26219 57.033971 0-67.940368 137.852648 67.26908 0 43.674709-93.088118c5.54632-11.664667 9.471722-21.881356 11.82328-30.792307 2.753717 9.649777 6.693446 19.895119 11.79872 30.792307l44.529169 93.088118 67.316152 0-68.827575-137.852648 57.867966 0L556.274366 175.225205zM925.953963 161.775892l-140.840702 25.815969-138.129964-25.815969-12.313443-1.813299 0-166.954453c0-10.015098 2.610454-19.97596 7.817036-29.880541 5.200442-9.917884 12.005428-19.514449 20.417005-28.827559 8.405437-9.304923 17.960047-18.11866 28.67918-26.419719 10.705829-8.316409 21.617343-15.72003 32.735565-22.226211 11.102872-6.511297 21.813818-11.923564 32.124651-16.213263 10.311857-4.309142 19.367093-7.264451 27.177989-8.867972l3.302209-0.594541 3.603061 0.594541c7.606235 1.607614 16.468067 4.562922 26.573215 8.867972 10.114358 4.2897 20.517289 9.701966 31.232328 16.213263 10.709923 6.507204 21.270443 13.909801 31.67849 22.226211 10.408047 8.305153 19.674085 17.114796 27.777647 26.419719 8.109702 9.31311 14.665001 18.909675 19.668968 28.827559 5.003967 9.904581 7.514137 19.865443 7.514137 29.880541L934.971337 159.96771l-9.011234 1.808182L925.953963 161.775892zM904.69887-10.294069c0-7.700379-1.867534-15.301498-5.609765-22.788006-3.743254-7.480368-8.747221-14.69263-15.023158-21.620413-6.27696-6.939039-13.484106-13.441127-21.636786-19.49603-8.146541-6.05081-16.621563-11.56029-25.426089-16.512069-8.804527-4.946662-17.72571-9.250688-26.750247-12.873192-9.030677-3.632737-17.399275-6.338359-25.095561-8.099469l0 149.934824L664.943344 38.251577 664.943344 143.60402l118.557186 20.148899 1.655709-0.331551 0-125.169791 119.5457 0 0-48.545646L904.69887-10.294069zM904.69887-10.294069" transform="translate(0, 812) scale(1, -1)"/>
</svg>
