<?xml version="1.0" encoding="utf-8"?>
<!DOCTYPE svg PUBLIC "-//W3C//DTD SVG 1.1//EN" "http://www.w3.org/Graphics/SVG/1.1/DTD/svg11.dtd">
<svg version="1.1" id="图形" xmlns="http://www.w3.org/2000/svg" xmlns:xlink="http://www.w3.org/1999/xlink" x="0px" y="0px" width="1024px" height="1024px" viewBox="0 0 1024 1024" enable-background="new 0 0 1024 1024" xml:space="preserve">
  <path fill="#272636" d="M406.094972 142.292142 194.264449 212.166559 194.264449 142.292142 406.094972 72.412608ZM406.094972 305.335519 194.264449 375.209936 194.264449 305.335519 406.094972 235.454962ZM406.094972 468.372755 194.264449 538.252289 194.264449 468.372755 406.094972 398.498338ZM825.738517 538.252289 613.918227 468.372755 613.918227 398.498338 825.738517 468.372755ZM825.738517 375.209936 613.918227 305.335519 613.918227 235.454962 825.738517 305.335519ZM825.738517 212.166559 613.918227 142.292142 613.918227 72.412608 825.738517 142.292142ZM900.351865 749.143417c-1.593288 0-2.394537 0.62831-3.373841 1.108241L512 641.402577 126.061091 750.522834c-0.741897-0.509606-1.058099-1.38044-2.403746-1.38044-38.998199 0-70.616314-31.607882-70.616314-70.607104 0 0 0 0 0-0.005117l0-648.722918c0-25.65224 13.820774-47.892777 34.288944-60.258409l424.680259-120.072703 424.680259 120.076796c20.458961 12.366655 34.269501 34.606169 34.269501 60.253292L970.959993 678.536312C970.95897 717.534512 939.351088 749.143417 900.351865 749.143417zM476.701053-67.846856l-353.043708 99.825566L123.657344 678.536312l353.043708-99.830683L476.701053-67.846856zM900.351865 31.979734l-353.043708-99.825566L547.308157 578.70563l353.043708 99.830683L900.351865 31.979734z" transform="translate(0, 812) scale(1, -1)"/>
</svg>
