<?xml version="1.0" encoding="utf-8"?>
<!DOCTYPE svg PUBLIC "-//W3C//DTD SVG 1.1//EN" "http://www.w3.org/Graphics/SVG/1.1/DTD/svg11.dtd">
<svg version="1.1" id="图形" xmlns="http://www.w3.org/2000/svg" xmlns:xlink="http://www.w3.org/1999/xlink" x="0px" y="0px" width="1024px" height="1024px" viewBox="0 0 1024 1024" enable-background="new 0 0 1024 1024" xml:space="preserve">
  <path fill="#272636" d="M611.19828 245.141578 817.364803 313.156648 817.364803 381.165578 611.19828 313.156648ZM408.921343 313.156648 202.744587 381.165578 202.744587 313.156648 408.921343 245.141578ZM408.921343 471.842787 202.744587 539.856833 202.744587 471.842787 408.921343 403.832833ZM408.921343 154.465392 202.744587 222.475346 202.744587 154.465392 408.921343 86.450323ZM611.19828 403.832833 817.364803 471.842787 817.364803 539.856833 611.19828 471.842787ZM562.250474-45.573573l-15.884782-4.491291L546.365692 579.230586l343.621105 97.165993 0-407.915433c25.108864-9.685593 48.26833-23.288402 68.722174-40.072671L958.708971 676.396579c0 37.957497-30.764678 68.722174-68.722174 68.722174-1.550309 0-2.330068 0.611937-3.28379 1.078565l-374.704031-105.942891L136.361691 746.462355c-0.722454-0.496304-1.030469-1.343601-2.340301-1.343601-37.957497 0-68.732407-30.764678-68.732407-68.722174 0 0 0 0 0-0.005117l0-631.408577c0-24.967648 13.45136-46.613644 33.374108-58.650795l413.345096-116.867708 81.320097 22.992667C580.27192-88.603599 569.741076-67.789551 562.250474-45.573573zM477.643518-50.064864l-343.621105 97.1619L134.022413 676.396579l343.621105-97.165993L477.643518-50.064864zM799.815101 217.399747c-100.285031 0-181.585685-81.300654-181.585685-181.590801 0-86.505189 60.618613-158.591995 141.612275-176.845731l0 127.145795-42.750663 0c-10.373255 0-14.609743 7.352455-9.425673 16.32378l82.72919 143.289474c5.178953 8.976442 13.658068 8.976442 18.85237 0l82.717933-143.289474c5.189186-8.971325 0.946558-16.32378-9.425673-16.32378l-42.750663 0 0-127.139655c80.993662 18.254759 141.612275 90.335425 141.612275 176.840614C981.400786 136.099093 900.100132 217.399747 799.815101 217.399747z" transform="translate(0, 812) scale(1, -1)"/>
</svg>
