<?xml version="1.0" encoding="utf-8"?>
<!DOCTYPE svg PUBLIC "-//W3C//DTD SVG 1.1//EN" "http://www.w3.org/Graphics/SVG/1.1/DTD/svg11.dtd">
<svg version="1.1" id="图形" xmlns="http://www.w3.org/2000/svg" xmlns:xlink="http://www.w3.org/1999/xlink" x="0px" y="0px" width="1024px" height="1024px" viewBox="0 0 1024 1024" enable-background="new 0 0 1024 1024" xml:space="preserve">
  <path fill="#272636" d="M513.514493 747.178669c-246.966765 0-447.180715-200.261023-447.180715-447.192995 0-247.00565 200.213951-447.164343 447.180715-447.164343 246.960625 0 447.188902 200.158692 447.188902 447.164343C960.703395 546.917646 760.474095 747.178669 513.514493 747.178669zM725.877135 138.518189c-21.282722-26.377764-59.9463-30.468942-86.337367-9.206686-24.168446 19.512403-29.398564 53.56087-13.690814 79.405491l-29.924543 24.325012c-39.196721-43.255153-104.742553-50.170656-152.145166-16.056698l-25.25929-31.16172c27.91477-27.41642 30.939663-72.052013 5.861498-103.116519-26.653033-33.121352-75.120908-38.268582-108.210537-11.583826-33.079396 26.685779-38.228673 75.138304-11.559267 108.218724 25.40767 31.453363 70.415746 37.642319 103.21885 15.20326l25.25008 31.138184c-42.869367 39.352263-49.559742 104.742553-15.33936 152.018276l-30.522154 24.77629c-18.889209-16.343223-47.288003-17.409508-67.424622-1.197268-22.594601 18.253736-26.119891 51.395554-7.844665 74.014714 18.232247 22.620184 51.353598 26.152637 73.990155 7.894807 21.431102-17.293875 25.456788-47.870264 10.29753-70.246901l30.235628-24.586978c39.22128 42.475394 104.053867 49.14121 151.145395 15.500019l24.160259 29.800723c-23.726378 23.442922-26.595728 61.33595-5.157463 87.820138 22.800285 28.264741 64.177672 32.694633 92.470041 9.903557 28.284183-22.840194 32.694633-64.246233 9.887184-92.493577-21.266349-26.386974-58.577117-31.67849-86.435605-13.847379l-24.193005-29.825282c42.86118-39.131229 49.828872-104.165408 16.216333-151.437038l29.727045-24.157189c21.856797 22.529109 57.487296 25.321712 82.33624 5.227048C743.035934 203.556461 747.176231 164.896976 725.877135 138.518189zM363.975688 134.645998c12.289907 0 22.25077 9.955746 22.25077 22.24156 0 12.288884-9.960863 22.245653-22.25077 22.245653-12.297071 0-22.257933-9.957793-22.257933-22.245653C341.717755 144.601744 351.678618 134.645998 363.975688 134.645998zM363.975688 131.82065c-15.928784 0-34.425044-13.080923-36.793998-37.94624-0.171915-1.74576-0.474814-3.38612-0.474814-5.230118 0-0.098237 0.040932-0.213871 0.048095-0.295735l0-0.032746c0.050142-0.024559 0.115634-0.024559 0.171915-0.024559 2.000564-0.451278 4.042059-0.713244 6.173606-0.713244l61.774949 0c2.114151 0 4.164856 0.26299 6.157233 0.713244 0.040932 0 0.106424 0 0.147356 0 0 0.024559 0 0.032746 0.016373 0.040932 0 0.098237 0.032746 0.213871 0.032746 0.312108 0 1.803066-0.312108 3.484358-0.508583 5.213745C398.138766 116.272535 379.807259 131.82065 363.975688 131.82065zM648.829342 487.847296c11.034311 0 19.970844 8.936533 19.970844 19.963681 0 11.026124-8.936533 19.966751-19.970844 19.966751-11.035334 0-19.980054-8.940626-19.980054-19.966751C628.849288 496.783829 637.792984 487.847296 648.829342 487.847296zM615.420441 446.273435c0.050142-0.020466 0.11461-0.020466 0.154519-0.020466 1.795902-0.410346 3.632737-0.647753 5.550413-0.647753l55.437613 0c1.88493 0 3.738138 0.237407 5.525853 0.647753 0.040932 0 0.090051 0 0.130983 0 0 0.020466 0 0.029676 0.017396 0.036839 0 0.086981 0.032746 0.193405 0.032746 0.278339 0 1.610684-0.279363 3.128247-0.459464 4.678556-2.320858 20.110013-18.774599 34.072003-32.982182 34.072003-14.290471 0-30.883381-11.740392-33.014928-34.06484-0.156566-1.557472-0.426719-3.024893-0.426719-4.692882 0-0.077771 0.032746-0.184195 0.032746-0.258896L615.419418 446.273435zM511.883343 315.637142c14.338566 0 25.980721 11.620665 25.980721 25.952068 0 14.334473-11.641131 25.956162-25.980721 25.956162-14.338566 0-25.964348-11.621688-25.964348-25.956162C485.918995 327.257807 497.544777 315.637142 511.883343 315.637142zM511.883343 312.341073c-18.58631 0-40.155559-15.265682-42.927695-44.276413-0.196475-2.0241-0.548492-3.938706-0.548492-6.102998 0-0.115634 0.040932-0.2415 0.048095-0.335644l0-0.050142c0.058328-0.016373 0.147356-0.016373 0.197498-0.016373 2.336208-0.520863 4.713348-0.844228 7.213285-0.844228l72.072479 0c2.468215 0 4.852518 0.323365 7.181563 0.844228 0.049119 0 0.122797 0 0.172939 0 0 0.016373 0 0.040932 0.01535 0.049119 0 0.11154 0.050142 0.237407 0.050142 0.361227 0 2.102894-0.369414 4.070712-0.606821 6.083555C551.751353 294.193761 530.35402 312.341073 511.883343 312.341073zM678.958546 183.700227c9.93528 0 17.97949 8.039093 17.97949 17.96721 0 9.923-8.043187 17.966187-17.97949 17.966187-9.92914 0-17.971303-8.043187-17.971303-17.966187C660.986219 191.738297 669.029406 183.700227 678.958546 183.700227zM678.958546 181.420301c-12.855796 0-27.792996-10.56666-29.719882-30.65723-0.121773-1.401929-0.376577-2.730181-0.376577-4.226255 0-0.073678 0.032746-0.171915 0.040932-0.234337l0-0.032746c0.040932-0.007163 0.098237-0.007163 0.130983-0.007163 1.614777-0.369414 3.270487-0.586354 5.000897-0.586354l49.8872 0c1.704828 0 3.369747 0.217964 4.968152 0.586354 0.040932 0 0.090051 0 0.122797 0 0 0 0 0.024559 0.016373 0.032746 0 0.069585 0.024559 0.167822 0.024559 0.248663 0 1.452071-0.254803 2.817162-0.418532 4.205788C706.561208 168.853078 691.756013 181.420301 678.958546 181.420301zM355.745237 446.535401c8.829086 0 15.978926 7.141654 15.978926 15.97074 0 8.821923-7.14984 15.97074-15.978926 15.97074-8.830109 0-15.97074-7.148817-15.97074-15.97074C339.774497 453.677055 346.915128 446.535401 355.745237 446.535401zM355.745237 444.507208c-11.429307 0-24.710798-9.394974-26.415626-27.243481-0.115634-1.254573-0.336668-2.434445-0.336668-3.76679 0-0.061398 0.025583-0.152473 0.032746-0.204661l0-0.025583c0.040932-0.007163 0.091074-0.007163 0.115634-0.007163 1.442862-0.328481 2.910283-0.520863 4.435009-0.520863l44.344974 0c1.532913 0 3.009544 0.192382 4.435009 0.520863 0.032746 0 0.065492 0 0.106424 0l0 0.023536c0.007163 0.061398 0.024559 0.152473 0.024559 0.222057 0 1.295506-0.213871 2.50403-0.361227 3.738138C380.283096 433.336798 367.115192 444.507208 355.745237 444.507208z" transform="translate(0, 812) scale(1, -1)"/>
</svg>
