<?xml version="1.0" encoding="utf-8"?>
<!-- Generator: Adobe Illustrator 17.0.0, SVG Export Plug-In . SVG Version: 6.00 Build 0)  -->
<!DOCTYPE svg PUBLIC "-//W3C//DTD SVG 1.1//EN" "http://www.w3.org/Graphics/SVG/1.1/DTD/svg11.dtd">
<svg version="1.1" id="图层_1" xmlns="http://www.w3.org/2000/svg" xmlns:xlink="http://www.w3.org/1999/xlink" x="0px" y="0px"
	 width="25.409px" height="23px" viewBox="0 0 25.409 23" enable-background="new 0 0 25.409 23" xml:space="preserve">
<g>
	<g>
		<g>
			<path fill="#FFFFFF" d="M13.909,0c-2.824,0-5.483,1.011-7.583,2.864L7.68,4.345C9.403,2.844,11.62,2,13.909,2
				c5.238,0,9.5,4.262,9.5,9.5s-4.262,9.5-9.5,9.5c-5.07,0-9.226-3.993-9.487-9l0.045-0.724l2.319,0.594l-1.608-5.31L0,10.132
				l2.448,0.627L2.42,12c0.263,6.11,5.316,11,11.489,11c6.341,0,11.5-5.159,11.5-11.5S20.25,0,13.909,0z"/>
			<polygon fill="#FFFFFF" points="12.209,6.833 12.209,12.833 12.539,12.833 18.309,15.746 19.06,14.258 13.876,11.641 
				13.876,6.833 			"/>
		</g>
	</g>
</g>
</svg>
