<?xml version="1.0" encoding="utf-8"?>
<!DOCTYPE svg PUBLIC "-//W3C//DTD SVG 1.1//EN" "http://www.w3.org/Graphics/SVG/1.1/DTD/svg11.dtd">
<svg version="1.1" id="图形" xmlns="http://www.w3.org/2000/svg" xmlns:xlink="http://www.w3.org/1999/xlink" x="0px" y="0px" width="1024px" height="1024px" viewBox="0 0 1024 1024" enable-background="new 0 0 1024 1024" xml:space="preserve">
  <path fill="#272636" d="M908.567991-21.096089 728.597083 158.874819c0 0-0.001023-0.001023-0.001023-0.001023 50.646494 62.448284 80.997756 142.027737 80.997756 228.696656 0 200.666252-162.673963 363.338169-363.338169 363.338169-200.666252 0-363.338169-162.671916-363.338169-363.338169 0-200.664206 162.671916-363.336122 363.338169-363.336122 65.638953 0 127.211287 17.408485 180.355671 47.855938-0.005117-0.00307-0.00921-0.00614-0.014326-0.008186l187.574073-187.574073c35.472909-35.472909 85.361133-43.098587 111.427812-17.031908S944.0409-56.568998 908.567991-21.096089zM446.255647 146.829482c-132.747373 0-240.743016 107.996666-240.743016 240.74097 0 132.747373 107.996666 240.743016 240.743016 240.743016s240.743016-107.996666 240.743016-240.743016C686.998663 254.826148 579.00302 146.829482 446.255647 146.829482z" transform="translate(0, 812) scale(1, -1)"/>
</svg>
