<?xml version="1.0" encoding="utf-8"?>
<!DOCTYPE svg PUBLIC "-//W3C//DTD SVG 1.1//EN" "http://www.w3.org/Graphics/SVG/1.1/DTD/svg11.dtd">
<svg version="1.1" id="图形" xmlns="http://www.w3.org/2000/svg" xmlns:xlink="http://www.w3.org/1999/xlink" x="0px" y="0px" width="1024px" height="1024px" viewBox="0 0 1024 1024" enable-background="new 0 0 1024 1024" xml:space="preserve">
  <path fill="#272636" d="M492.019946 381.72021l4.226255 4.284583 0 5.744841 4.40738 0 0-9.865695 6.803963 0 0-20.354584 9.815553 0 0 28.16855-4.381797 0-8.495488 0 0 6.107091 6.098905 0 3.586688 3.562129-2.00261 2.00261c-11.982916-3.742231-23.064298-9.488095-32.830733-16.874319l2.774183-2.774183L492.019946 381.721233zM376.956328 129.04135c-13.385868 0-28.873608-13.132088-31.049157-32.090882-0.181125-1.477654-0.435928-2.889817-0.435928-4.400217 0-0.098237 0.025583-0.196475 0.025583-0.279363 0.007163 0 0.007163-0.016373 0.007163-0.016373 0.050142 0 0.091074 0 0.12382 0 1.682315-0.393973 3.421936-0.623193 5.211698-0.623193l52.225455 0c1.796926 0 3.520173 0.229221 5.228071 0.623193 0.024559 0 0.090051 0 0.130983 0l0 0.032746c0.008186 0.065492 0.040932 0.163729 0.040932 0.246617 0 1.575892-0.271176 2.937912-0.402159 4.431939C406.061203 117.977363 390.426107 129.04135 376.956328 129.04135zM544.785707 360.839647l12.368702 12.393261 5.113461 5.121648 5.934153 0 0 12.360516 0 8.831132-7.80578 0 0 5.580089c-5.203512 0.787946-10.521634 1.182942-15.95539 1.182942-1.239224 0-2.462075-0.049119-3.669576-0.115634l-0.39295-0.886183 0-8.502651-6.795776 0 0-16.612353 1.041726 0 3.734044 0 0-6.467295-5.432733 0 0-13.887288 5.432733-5.450129L544.785707 360.839647zM626.862028 454.258293c0.032746-0.016373 0.106424-0.016373 0.13917-0.016373 1.699712-0.3776 3.406586-0.607844 5.219885-0.607844l52.217269 0c1.797949 0 3.51301 0.230244 5.203512 0.607844 0.040932 0 0.091074 0 0.132006 0 0 0.016373 0.008186 0.032746 0.008186 0.032746 0 0.082888 0.032746 0.181125 0.032746 0.261966 0 1.526773-0.261966 2.938935-0.443092 4.415566-2.175549 18.943444-17.670451 32.091906-31.049157 32.091906-13.476943 0-29.088502-11.063987-31.098275-32.091906-0.13917-1.476631-0.418532-2.856048-0.418532-4.415566 0-0.081864 0.049119-0.180102 0.057305-0.245593L626.863051 454.258293zM368.363625 350.564629c0.049119 0 0.098237 0 0.13917 0.016373l0 0.032746c0 0.065492 0.049119 0.163729 0.049119 0.246617 0 1.575892-0.261966 2.955308-0.402159 4.432962-2.00261 21.027919-17.637706 32.058137-31.107485 32.058137-13.386892 0-28.891004-13.132088-31.057343-32.075533-0.181125-1.460258-0.434905-2.888793-0.434905-4.399193 0-0.099261 0.032746-0.197498 0.032746-0.26299 0.008186 0 0.008186-0.032746 0.008186-0.049119 0.025583 0 0.091074 0 0.12382 0 1.682315-0.361227 3.421936-0.607844 5.203512-0.607844l52.225455 0C364.948853 349.956785 366.68131 350.203402 368.363625 350.564629zM376.956328 131.437933c10.398838 0 18.803251 8.420787 18.803251 18.779715 0 10.390651-8.404414 18.827811-18.803251 18.827811-10.390651 0-18.811438-8.43716-18.811438-18.827811C358.145913 139.85872 366.565676 131.437933 376.956328 131.437933zM688.082344 109.097112c10.398838 0 18.819624 8.420787 18.819624 18.795065 0 10.390651-8.420787 18.811438-18.819624 18.811438-10.383488 0-18.803251-8.42181-18.803251-18.811438C669.279093 117.516876 677.698856 109.097112 688.082344 109.097112zM658.32153 493.425338c10.382465 0 18.819624 8.42181 18.819624 18.795065 0 10.391674-8.43716 18.812461-18.819624 18.812461-10.391674 0-18.811438-8.420787-18.811438-18.812461C639.510092 501.847148 647.929856 493.425338 658.32153 493.425338zM688.082344 106.699506c-13.46057 0-29.095665-11.04659-31.098275-32.058137-0.130983-1.494027-0.402159-2.857071-0.402159-4.432962 0-0.081864 0.033769-0.181125 0.040932-0.246617l0-0.032746c0.049119-0.016373 0.098237-0.016373 0.13917-0.016373 1.699712-0.3776 3.422959-0.607844 5.219885-0.607844l52.233642 0c1.780553 0 3.520173 0.230244 5.203512 0.607844 0.032746 0 0.081864 0 0.130983 0 0 0.016373 0 0.032746 0 0.032746 0 0.081864 0.025583 0.181125 0.025583 0.261966 0 1.526773-0.254803 2.937912-0.418532 4.415566C716.965162 93.567417 701.469236 106.699506 688.082344 106.699506zM527.467273 282.785943l-10.194176 0 0 2.708692-28.471448 0-14.273075 13.558807 0 6.139837 14.56881 0 0-5.41636 4.456498 0 0 10.17678 3.200902 3.217275 4.768607 4.744048 4.062526 4.070712 3.210112 3.266393 0 3.037173 3.577478 3.544733 1.518586-1.526773 3.726881 3.742231-5.745864 0 0 3.053546 4.070712 0 0 4.727675 4.079922 0 0 11.539824-9.529027 0 0 2.052752-9.151427 0 0-16.645099-3.38919-1.01819-2.725064 6.467295-8.116865 5.745864-4.768607 6.450922 8.108678-1.000793 2.749624 4.415566-2.38021 2.725064-1.01819 3.381004 10.18599 0.656963 1.353834 7.123234-33.995255 0.361227c-10.79281-10.882861-19.279089-24.032346-24.704658-38.624692l0-20.764929 2.725064-0.673335 3.045359-11.884678 6.107091-7.485485 0 8.520047-2.405793 1.329275 1.403976 3.742231 4.88424-3.053546 0-9.980305 7.320733-7.320733 10.194176 0 11.489682-8.502651 0-18.97619 16.645099-15.610536 0-37.360909 15.618723-14.232143 0 18.319228 13.911848 10.209526L533.583574 236.970478l4.776793 6.828522 9.136078 0 0 24.738427-8.815783 0L527.467273 282.785943zM511.799432 747.844841c-247.221568 0-447.658599-200.446241-447.658599-447.659623 0-247.261477 200.437032-447.691345 447.658599-447.691345 247.25329 0 447.715905 200.429869 447.715905 447.691345C959.515337 547.3986 759.052722 747.844841 511.799432 747.844841zM662.014642 556.919441c40.299845 0.623193 73.277934-27.578102 73.704652-63.067384 0.385786-35.490306-31.902594-64.774259-72.218812-65.414849-4.341888-0.049119-8.610098 0.261966-12.779048 0.853437l-37.22174-21.208021 12.967336 28.709879c-21.651113 10.80202-36.375465 31.140231-36.663014 54.744835C589.402881 526.993874 621.74038 556.263501 662.014642 556.919441zM265.596054 390.173742c0.434905 35.490306 33.404808 63.691601 73.704652 63.051011 40.282448-0.623193 72.611761-29.90817 72.210625-65.364707-0.295735-23.589254-15.011902-43.927465-36.663014-54.744835l12.975523-28.709879-37.229926 21.208021c-4.178159-0.575098-8.43716-0.902556-12.787234-0.837064C297.498648 325.416879 265.202081 354.68446 265.596054 390.173742zM380.707768 65.760095c-40.298821-0.639566-73.27691 27.578102-73.712839 63.051011-0.385786 35.489282 31.911804 64.774259 72.218812 65.414849 4.358261 0.049119 8.618285-0.26299 12.787234-0.837064l37.22174 21.192671L416.254356 185.887033c21.652136-10.81737 36.368302-31.155581 36.654828-54.744835C453.312366 95.668265 420.973844 66.400684 380.707768 65.760095zM432.801217 297.723144c0 61.671595 49.976228 111.673405 111.639636 111.673405 61.655222 0 111.623263-50.001811 111.623263-111.673405 0-61.655222-49.968042-111.639636-111.623263-111.639636C482.777445 186.083507 432.801217 236.067922 432.801217 297.723144zM684.340113 43.419274c-40.283472 0.656963-72.604598 29.925566-72.202439 65.398476 0.286526 23.588231 15.002692 43.926442 36.654828 54.728462l-12.968359 28.709879 37.22174-21.191648c4.178159 0.575098 8.43716 0.886183 12.787234 0.837064 40.316218-0.639566 72.604598-29.90817 72.210625-65.414849C757.617024 71.012725 724.647121 42.795057 684.340113 43.419274zM628.7664 293.636059l-11.047614 0-9.660011 9.685593 0 6.631024 4.226255 0 0-4.76042 7.148817-7.140631 14.585183 0 0 8.863878-7.140631 7.107885 2.396583 2.38021 23.605627-23.605627c0.081864 1.657756 0.12382 3.25002 0.12382 4.924149 0 30.779004-12.911054 58.635445-33.536814 78.383208l-13.607926 0-0.673335-3.365654-3.060709-2.035356-6.442736-0.688685 0.319272 4.070712-5.745864 1.01819 1.010003 4.054339-8.815783-2.035356-4.76042-8.141424-8.149611-6.107091-0.688685-7.79657 8.15882-2.00261 4.752234-2.085498 2.396583 2.38021 0 12.918217 3.052522 0 0-6.450922 5.745864 0 0-6.763031-5.408173 0 0-4.76042-13.583366 0 0-4.76042-4.423753 0-6.097882 6.106068 0 4.070712-7.107885 0 0-6.812149 0-3.365654-1.87879-1.855254 3.53757-3.578502 4.440126 4.399193 3.365654-3.3984-1.871627-1.855254 0-2.561335-2.847861 0 0-10.850116 0-3.381004 7.773034 0 0 7.123234 3.923356 3.89061 4.579295 4.596691 6.106068-6.107091 0-2.725064 4.088108-4.087085 5.063319 0-6.27082 6.27082 4.276397 0 6.845918-6.845918 0 5.007037 6.401804 6.385431 6.073322 0 4.037966-4.021593-6.401804 0-3.742231-3.759627-3.898797-3.873214 6.606465 0 0-4.579295L580.423369 317.747199l0 3.725858-4.768607 0-3.742231 0-7.116071-7.123234-11.210319 0-6.599302-6.599302 0-19.533892 7.706519-7.715729 19.615757 0 9.364275-9.372461 0-23.638373 7.550976-7.518231 0-12.81998 13.960966 0 5.925966 5.924943 0 14.413268 7.624654 0 0 13.57518 0 14.592346 10.030447 10.014074L628.7664 293.636059zM337.043293 389.763396c10.390651 0 18.812461 8.404414 18.812461 18.795065 0 10.374278-8.42181 18.811438-18.812461 18.811438-10.390651 0-18.811438-8.43716-18.811438-18.811438C318.230831 398.16781 326.652642 389.763396 337.043293 389.763396z" transform="translate(0, 812) scale(1, -1)"/>
</svg>
