<?xml version="1.0" encoding="utf-8"?>
<!-- Generator: Adobe Illustrator 17.0.0, SVG Export Plug-In . SVG Version: 6.00 Build 0)  -->
<!DOCTYPE svg PUBLIC "-//W3C//DTD SVG 1.1//EN" "http://www.w3.org/Graphics/SVG/1.1/DTD/svg11.dtd">
<svg version="1.1" id="图层_1" xmlns="http://www.w3.org/2000/svg" xmlns:xlink="http://www.w3.org/1999/xlink" x="0px" y="0px"
	 width="16px" height="13.614px" viewBox="0 0 16 13.614" enable-background="new 0 0 16 13.614" xml:space="preserve">
<g>
	<path fill="#CDD0D2" d="M7.809,10.642L7.157,9.99L8.05,9.096L8.943,9.99l-0.6,0.6l0.935,2.426l-0.12,0.598H16
		c0,0-0.045-1.19-1.105-2.213c-0.481-0.465-3.327-1.254-4.174-1.852c-0.455-0.321-0.706-0.815-0.841-1.256
		c0.364-0.266,0.576-1.017,0.716-1.466c0.079-0.257,0.159-0.212,0.234-1.212h0.003c0.362,1,0.528,0.102,0.725-0.46
		c0.197-0.563,0.35-0.798-0.011-0.909c-0.067-0.021-0.15,0.089-0.238,0.094c0.059-0.358,0.094-0.626,0.094-0.887
		C11.403,1.533,9.949,0.006,8,0C6.051,0.006,4.597,1.575,4.597,3.493c0,0.262,0.035,0.593,0.094,0.95
		c-0.087-0.005-0.17,0-0.238,0.021C4.092,4.576,4.245,5.036,4.443,5.599c0.197,0.562,0.363,1.019,0.725,0.908
		c0,0,0.002,0,0.003-0.001c0.076,0.269,0.155,0.536,0.234,0.793c0.14,0.449,0.352,0.779,0.716,1.045
		C5.985,8.785,5.734,9.332,5.279,9.652c-0.848,0.597-3.693,1.283-4.174,1.748C0.045,12.424,0,13.614,0,13.614h7.013l-0.102-0.643
		L7.809,10.642z"/>
</g>
</svg>
