<?xml version="1.0" encoding="utf-8"?>
<!DOCTYPE svg PUBLIC "-//W3C//DTD SVG 1.1//EN" "http://www.w3.org/Graphics/SVG/1.1/DTD/svg11.dtd">
<svg version="1.1" id="图形" xmlns="http://www.w3.org/2000/svg" xmlns:xlink="http://www.w3.org/1999/xlink" x="0px" y="0px" width="1024px" height="1024px" viewBox="0 0 1024 1024" enable-background="new 0 0 1024 1024" xml:space="preserve">
  <path fill="#272636" d="M329.128019 167.865587c-13.346983 0-24.153096-10.821463-24.153096-24.1357 0-13.346983 10.806113-24.168446 24.153096-24.168446 13.334703 0 24.149003 10.822486 24.149003 24.168446C353.277022 157.044124 342.462722 167.865587 329.128019 167.865587zM512.01842 747.182762c-246.973928 0-447.203228-200.222137-447.203228-447.174576 0-246.969834 200.230324-447.190949 447.203228-447.190949 246.927879 0 447.165366 200.222137 447.165366 447.190949C959.184809 546.960625 758.946298 747.182762 512.01842 747.182762zM387.173017 134.580506c0-19.692504-16.114003-35.8106-35.781948-35.8106l-67.862597 0L283.528472 362.857607l67.862597 0c19.666922 0 35.781948-16.068977 35.781948-35.794228L387.173017 134.580506zM713.961758 230.289312c8.993838-5.476735 15.08558-16.217357 15.08558-28.514427 0-15.429411-9.525957-28.333302-22.340821-31.645744 7.755638-5.804193 12.887518-15.757892 12.887518-27.055193 0-17.922185-12.928451-32.465412-28.866445-32.465412l-94.429673 0c0 0-72.589248-5.689582-114.708532 12.117992-40.762379 17.265222-84.398202 0.573051-84.398202 0.573051L397.191184 327.685549c0 0 28.240181-2.360767 39.983643 3.13234 11.748578 5.493108 43.094494 33.679054 57.208956 50.944276 14.117532 17.217127 29.087479 33.220612 32.219819 72.409147 3.114944 39.172161 33.620725 63.931055 62.619176 33.384341 26.374694-27.809369 9.215896-74.490551-20.028149-125.779681l126.657678 0c15.929808 0 28.850072-14.560624 28.850072-32.482809 0-14.052041-7.960299-26.021653-19.102057-30.53034l4.312212 0c16.896832 0 30.563086-15.413038 30.563086-34.400484C740.474598 246.931341 728.907145 232.551842 713.961758 230.289312z" transform="translate(0, 812) scale(1, -1)"/>
</svg>
