<?xml version="1.0" encoding="utf-8"?>
<!DOCTYPE svg PUBLIC "-//W3C//DTD SVG 1.1//EN" "http://www.w3.org/Graphics/SVG/1.1/DTD/svg11.dtd">
<svg version="1.1" id="图形" xmlns="http://www.w3.org/2000/svg" xmlns:xlink="http://www.w3.org/1999/xlink" x="0px" y="0px" width="1024px" height="1024px" viewBox="0 0 1024 1024" enable-background="new 0 0 1024 1024" xml:space="preserve">
  <path fill="#272636" d="M818.424948-146.708971 205.575052-146.708971c-76.060303 0-134.207631 28.124548-163.68499 79.180364s-24.76401 115.444289 13.266142 181.337021L361.580129 644.553337c38.052664 65.871243 91.465155 102.155634 150.419871 102.155634S624.367207 710.42458 662.419871 644.553337l306.424948-530.744923c38.030152-65.892733 42.7435-130.280182 13.266142-181.337021S894.485251-146.708971 818.424948-146.708971zM512 657.339548c-25.309432 0-51.928696-20.946055-73.005734-57.470923L132.569318 69.123702c-21.098527-36.524868-25.920346-70.060659-13.266142-91.966575 12.655228-21.928429 44.096311-34.495652 86.271876-34.495652l612.849896 0c42.175565 0 73.616648 12.567223 86.271876 34.495652 12.655228 21.905916 7.833409 55.441707-13.266142 91.966575L585.005734 599.868625C563.928696 636.393493 537.309432 657.339548 512 657.339548zM503.883135-12.391846c-29.760814 0-51.361785 22.582321-51.361785 53.674457 0 30.939663 22.320355 54.263881 51.928696 54.263881 29.760814 0 51.361785-22.822798 51.361785-54.263881C555.811832 10.190475 533.971407-12.391846 503.883135-12.391846zM469.670939 126.463642l-11.06194 330.425571 91.704608 0-11.084453-330.425571L469.670939 126.463642z" transform="translate(0, 812) scale(1, -1)"/>
</svg>
