<?xml version="1.0" encoding="utf-8"?>
<!DOCTYPE svg PUBLIC "-//W3C//DTD SVG 1.1//EN" "http://www.w3.org/Graphics/SVG/1.1/DTD/svg11.dtd">
<svg version="1.1" id="图形" xmlns="http://www.w3.org/2000/svg" xmlns:xlink="http://www.w3.org/1999/xlink" x="0px" y="0px" width="2720px" height="1024px" viewBox="0 0 2720 1024" enable-background="new 0 0 2720 1024" xml:space="preserve">
  <path fill="#272636" d="M1323.866 249.316c3.257-1.394 6.509-2.789 10.222-2.789 3.728 0 6.994 1.395 10.25 2.789 35.816 20.007 66.057 50.246 86.055 86.069 1.404 3.257 2.335 6.514 2.335 9.769 0 3.259-0.931 6.516-2.335 10.235-19.998 35.826-50.286 65.966-86.992 86.069-2.374 1.298-5.585 2.327-9.313 2.327-4.169 0-7.426-0.951-10.689-2.792-35.345-20.026-65.599-49.779-85.602-85.604-1.392-3.257-2.326-6.51-2.326-10.235 0-3.719 0.942-6.978 2.79-10.234 20.019-35.348 49.784-65.596 85.604-85.603zM2385.508 228.382c-2.387 1.296-4.192 1.862-7.446 1.862-2.802 0-5.547-0.99-7.909-2.321-26.487-14.951-49.219-36.816-64.203-64.205-1.303-2.388-1.86-5.116-1.86-7.446 0-2.794 0.988-5.545 2.329-7.907 14.942-26.484 36.795-49.218 64.201-64.202 2.367-1.299 5.108-1.86 7.442-1.86 2.324 0 4.644 0.475 7.904 1.86 27.449 14.888 49.648 37.299 64.2 64.666 1.27 2.406 1.865 4.649 1.865 7.443 0 2.791-0.566 5.057-1.865 7.446-14.981 27.39-37.266 49.681-64.658 64.665zM2702.32 85.094c-184.693-31.638-353.574-53.505-506.626-68.393v259.599h248.434v48.849h-248.434v128.403h282.845c3.721 19.541 8.508 114.892 10.714 139.102 3.842 42.318-20.478 67.925-55.83 67.925h-237.73v75.367h-126.074c-3.723-0.476-6.975-1.397-10.235-2.791-5.122-3.257-10.24-6.978-10.24-17.68v-54.897h-262.853c-16.744 0-25.221-9.73-29.302-19.075-2.424-5.543-4.197-11.617-4.197-18.607v-170.272h296.352v-127.476h-261.921v-48.849h261.921v-271.216c-152.133-10.711-286.111-12.571-409.391-8.852v503.844h78.163v48.848h-78.163v178.184h-113.979c-3.254 0-6.007-0.582-9.311-1.861-5.068-1.979-10.697-6.515-12.098-14.424v-161.9h-325.188v-48.848h325.188v-497.331c-135.841 9.317-252.141 25.588-356.354 46.535v533.607c27.445 46.056 44.665 80.948 59.55 144.221h-127.010c-15.816 0-20.007-14.887-20.007-16.285-20.931-95.835-78.027-211.347-181.435-305.653-2.206-2.016-2.321-4.189-2.321-6.049 0-1.398 0-2.327 0.465-2.793l1.391-1.862c1.396-1.394 2.796-1.859 4.188-1.859 43.272 11.166 93.975 31.636 136.772 60.944v-375.438c-107.935 27.449-198.644 57.687-281.918 87.461 48.382 77.695 86.529 166.086 111.182 266.113h-224.698v117.235h279.6v48.383h-279.6v129.802h-122.82c-4.183-0.465-7.438-1.396-10.702-2.804-5.581-3.244-10.7-7.441-10.7-18.133v-108.866h-293.088v-48.383h293.088v-117.235h-224.699v-48.384h440.102c-19.075-64.668-44.663-122.819-74.904-175.395-119.097 42.336-220.052 74.907-329.379 74.907-263.31 0-339.609-183.299-255.405-307.056l-1.861 4.192c39.544-61.877 127.474-110.728 237.73-110.728 147.007 0 287.968 75.367 398.23 202.843 298.206-141.42 772.266-317.75 1870.663-183.765 45.131 12.572 172.593 194.001 161.896 196.791zM1897.947 501.936h-3.253v89.789c0 9.77 5.585 14.868 11.163 17.214 3.262 1.374 7.446 1.86 11.634 2.327h409.39c18.615 0 24.194-10.703 24.194-17.677 0-18.611-3.253-59.086-5.579-91.653h-447.548zM248.271-52.613c-187.484 0-244.241 138.169-160.966 221.447 42.335 31.632 101.415 50.713 177.713 50.713 100.49 0 188.413-40.477 298.67-94.911-88.388-110.724-201.903-177.248-315.418-177.248z" transform="translate(0, 812) scale(1, -1)"/>
</svg>
